<mxfile host="app.diagrams.net" modified="2024-03-24T11:02:53.320Z" agent="Mozilla/5.0 (Windows NT 10.0; Win64; x64) AppleWebKit/537.36 (KHTML, like Gecko) Chrome/122.0.0.0 Safari/537.36 Edg/122.0.0.0" etag="NZxhHlTgR8sYyCGiCbwh" version="24.0.7" type="github">
  <diagram name="Page-1" id="9f46799a-70d6-7492-0946-bef42562c5a5">
    <mxGraphModel dx="1579" dy="1601" grid="1" gridSize="10" guides="1" tooltips="1" connect="1" arrows="1" fold="1" page="1" pageScale="1" pageWidth="1100" pageHeight="850" background="none" math="0" shadow="0">
      <root>
        <mxCell id="0" />
        <mxCell id="1" parent="0" />
        <mxCell id="78961159f06e98e8-124" style="edgeStyle=orthogonalEdgeStyle;html=1;labelBackgroundColor=none;startFill=0;startSize=8;endArrow=diamondThin;endFill=0;endSize=16;fontFamily=Verdana;fontSize=12;exitX=0.5;exitY=1;exitDx=0;exitDy=0;" parent="1" source="78961159f06e98e8-17" edge="1">
          <mxGeometry relative="1" as="geometry">
            <Array as="points">
              <mxPoint x="180" y="-80" />
            </Array>
            <mxPoint x="179.44" y="-90" as="targetPoint" />
            <mxPoint x="179.43999999999977" y="-380.0000000000002" as="sourcePoint" />
          </mxGeometry>
        </mxCell>
        <mxCell id="78961159f06e98e8-17" value="Owner/Manager" style="swimlane;html=1;fontStyle=1;align=center;verticalAlign=top;childLayout=stackLayout;horizontal=1;startSize=26;horizontalStack=0;resizeParent=1;resizeLast=0;collapsible=1;marginBottom=0;swimlaneFillColor=#ffffff;rounded=0;shadow=0;comic=0;labelBackgroundColor=none;strokeWidth=1;fillColor=none;fontFamily=Verdana;fontSize=12" parent="1" vertex="1">
          <mxGeometry x="100" y="-527" width="160" height="187" as="geometry" />
        </mxCell>
        <mxCell id="78961159f06e98e8-21" value="- Crear, eliminar o transferir Negocios / Marcas&lt;br&gt;&lt;br&gt;- Crear y eliminar usuarios Admin&lt;div&gt;&amp;amp; empleados&lt;/div&gt;&lt;div&gt;&lt;br&gt;- Asignar facultades al Admin.&lt;/div&gt;" style="text;html=1;strokeColor=none;fillColor=none;align=left;verticalAlign=top;spacingLeft=4;spacingRight=4;whiteSpace=wrap;overflow=hidden;rotatable=0;points=[[0,0.5],[1,0.5]];portConstraint=eastwest;" parent="78961159f06e98e8-17" vertex="1">
          <mxGeometry y="26" width="160" height="144" as="geometry" />
        </mxCell>
        <mxCell id="78961159f06e98e8-30" value="Admin" style="swimlane;html=1;fontStyle=1;align=center;verticalAlign=top;childLayout=stackLayout;horizontal=1;startSize=26;horizontalStack=0;resizeParent=1;resizeLast=0;collapsible=1;marginBottom=0;swimlaneFillColor=#ffffff;rounded=0;shadow=0;comic=0;labelBackgroundColor=none;strokeWidth=1;fillColor=none;fontFamily=Verdana;fontSize=12" parent="1" vertex="1">
          <mxGeometry x="440" y="-527" width="160" height="220" as="geometry" />
        </mxCell>
        <mxCell id="78961159f06e98e8-31" value="+ Crear, editar y borrar contenido de un negocio o marca.&lt;br&gt;&lt;br&gt;+ Revisar métricas asociadas al negocio / marca.&lt;br&gt;&lt;div&gt;&lt;br&gt;+ Gestionar/aprobar pedidos o reservas solicitadas por clientes y atender el chat.&lt;/div&gt;" style="text;html=1;strokeColor=none;fillColor=none;align=left;verticalAlign=top;spacingLeft=4;spacingRight=4;whiteSpace=wrap;overflow=hidden;rotatable=0;points=[[0,0.5],[1,0.5]];portConstraint=eastwest;" parent="78961159f06e98e8-30" vertex="1">
          <mxGeometry y="26" width="160" height="194" as="geometry" />
        </mxCell>
        <mxCell id="78961159f06e98e8-43" value="Users" style="swimlane;html=1;fontStyle=1;align=center;verticalAlign=top;childLayout=stackLayout;horizontal=1;startSize=26;horizontalStack=0;resizeParent=1;resizeLast=0;collapsible=1;marginBottom=0;swimlaneFillColor=#ffffff;rounded=0;shadow=0;comic=0;labelBackgroundColor=none;strokeWidth=1;fillColor=none;fontFamily=Verdana;fontSize=12" parent="1" vertex="1">
          <mxGeometry x="1064" y="-527" width="300" height="470" as="geometry" />
        </mxCell>
        <mxCell id="78961159f06e98e8-44" value="+ buscar y explorar negocios y marcas&lt;br&gt;&lt;br&gt;+ mirar resumida o detalladamente las secciones del home Foodly tales como promociones, novedades, tendencias y otras categorías.&lt;div&gt;&lt;br&gt;&lt;/div&gt;&lt;div&gt;+ postear en el feed social contenido propio, recomendaciones que pueden incluir fotos, links o videos de máximo 20seg.&lt;/div&gt;&lt;div&gt;&lt;br&gt;&lt;/div&gt;&lt;div&gt;+ ver la parte pública del perfil de otros usuarios, seguirlos&amp;nbsp;&lt;/div&gt;&lt;div&gt;&lt;br&gt;&lt;/div&gt;&lt;div&gt;+ calificar negocios y marcas&lt;/div&gt;&lt;div&gt;&lt;br&gt;&lt;/div&gt;&lt;div&gt;+ dar like, comentar, guardar (favear), reportar posts.&lt;br&gt;&lt;br&gt;+ reportar usuarios que violen las normas de comunidad o tengan comportamientos irregulares.&lt;/div&gt;&lt;div&gt;&lt;br&gt;&lt;/div&gt;&lt;div&gt;+ guardar (favear) negocios - marcas, promociones, platos (items) de menús.&lt;/div&gt;&lt;div&gt;&lt;br&gt;&lt;/div&gt;&lt;div&gt;+ recomendar negocios - marcas, promociones, platos (items) de menús.&lt;/div&gt;&lt;div&gt;&lt;br&gt;&lt;/div&gt;&lt;div&gt;+ editar, modificar o eliminar su perfil en Foodly.&lt;/div&gt;&lt;div&gt;&lt;br&gt;&lt;/div&gt;&lt;div&gt;+ reclamar un negocio que es de su propiedad y le fue usurpado o no le fue transferido.&lt;/div&gt;" style="text;html=1;strokeColor=none;fillColor=none;align=left;verticalAlign=top;spacingLeft=4;spacingRight=4;whiteSpace=wrap;overflow=hidden;rotatable=0;points=[[0,0.5],[1,0.5]];portConstraint=eastwest;" parent="78961159f06e98e8-43" vertex="1">
          <mxGeometry y="26" width="300" height="444" as="geometry" />
        </mxCell>
        <mxCell id="78961159f06e98e8-56" value="Negocios / Marcas" style="swimlane;html=1;fontStyle=1;align=center;verticalAlign=top;childLayout=stackLayout;horizontal=1;startSize=26;horizontalStack=0;resizeParent=1;resizeLast=0;collapsible=1;marginBottom=0;swimlaneFillColor=#ffffff;rounded=0;shadow=0;comic=0;labelBackgroundColor=none;strokeWidth=1;fillColor=none;fontFamily=Verdana;fontSize=12" parent="1" vertex="1">
          <mxGeometry x="100" y="-70" width="160" height="650" as="geometry" />
        </mxCell>
        <mxCell id="78961159f06e98e8-57" value="+ contiene las siguientes propiedades:&lt;br&gt;&lt;br&gt;- categoria/rubro de negocio - marca&lt;div&gt;&lt;br&gt;&lt;/div&gt;&lt;div&gt;- nombre&lt;br&gt;&lt;div&gt;&lt;br&gt;- Foto de perfil&amp;nbsp;&lt;br&gt;&lt;br&gt;- Array de fotos de portada&lt;div&gt;&lt;br&gt;&lt;/div&gt;&lt;div&gt;- dirección principal&lt;/div&gt;&lt;div&gt;&lt;br&gt;&lt;/div&gt;&lt;div&gt;- sucursales&lt;/div&gt;&lt;div&gt;&lt;br&gt;&lt;/div&gt;&lt;div&gt;- descripción&lt;/div&gt;&lt;div&gt;&lt;br&gt;&lt;/div&gt;&lt;div&gt;- calificaciones&lt;/div&gt;&lt;/div&gt;&lt;/div&gt;&lt;div&gt;&lt;br&gt;&lt;/div&gt;&lt;div&gt;- menús&amp;nbsp;&lt;/div&gt;&lt;div&gt;&lt;br&gt;&lt;/div&gt;&lt;div&gt;- promociones&lt;/div&gt;&lt;div&gt;&lt;br&gt;&lt;/div&gt;&lt;div&gt;- servicios: [&lt;br&gt;&amp;nbsp; &amp;nbsp;on_site,&lt;br&gt;&amp;nbsp; &amp;nbsp;delivery,&lt;br&gt;&amp;nbsp; &amp;nbsp;take_away,&lt;br&gt;&amp;nbsp; &amp;nbsp;catering,&lt;br&gt;&amp;nbsp; &amp;nbsp;academy,&lt;br&gt;&amp;nbsp; &amp;nbsp;eventos,&lt;br&gt;]&lt;/div&gt;&lt;div&gt;&lt;br&gt;&lt;/div&gt;&lt;div&gt;- botón de &quot;como llegar?&quot;.&lt;/div&gt;&lt;div&gt;&lt;br&gt;&lt;/div&gt;&lt;div&gt;- items con mas favs de users&lt;/div&gt;&lt;div&gt;&lt;br&gt;&lt;/div&gt;&lt;div&gt;- club de afiliados o usuarios vip (programa de beneficios).&lt;/div&gt;" style="text;html=1;strokeColor=none;fillColor=none;align=left;verticalAlign=top;spacingLeft=4;spacingRight=4;whiteSpace=wrap;overflow=hidden;rotatable=0;points=[[0,0.5],[1,0.5]];portConstraint=eastwest;" parent="78961159f06e98e8-56" vertex="1">
          <mxGeometry y="26" width="160" height="624" as="geometry" />
        </mxCell>
        <mxCell id="78961159f06e98e8-130" style="edgeStyle=elbowEdgeStyle;html=1;labelBackgroundColor=none;startFill=0;startSize=8;endArrow=diamondThin;endFill=0;endSize=16;fontFamily=Verdana;fontSize=12;elbow=vertical;exitX=1;exitY=0.5;exitDx=0;exitDy=0;entryX=0;entryY=0.5;entryDx=0;entryDy=0;" parent="1" source="78961159f06e98e8-70" target="78961159f06e98e8-83" edge="1">
          <mxGeometry relative="1" as="geometry">
            <mxPoint x="770" y="70" as="targetPoint" />
            <Array as="points">
              <mxPoint x="520" y="-62" />
            </Array>
          </mxGeometry>
        </mxCell>
        <mxCell id="78961159f06e98e8-69" value="Menú" style="swimlane;html=1;fontStyle=1;align=center;verticalAlign=top;childLayout=stackLayout;horizontal=1;startSize=26;horizontalStack=0;resizeParent=1;resizeLast=0;collapsible=1;marginBottom=0;swimlaneFillColor=#ffffff;rounded=0;shadow=0;comic=0;labelBackgroundColor=none;strokeWidth=1;fillColor=none;fontFamily=Verdana;fontSize=12" parent="1" vertex="1">
          <mxGeometry x="340" y="-190" width="160" height="230" as="geometry" />
        </mxCell>
        <mxCell id="78961159f06e98e8-70" value="+ Categorías y subcategorias de platos&lt;div&gt;&lt;br&gt;&lt;/div&gt;&lt;div&gt;+ Categorias y subcategorias de bebidas&lt;/div&gt;&lt;div&gt;&lt;br&gt;&lt;/div&gt;&lt;div&gt;+ items&lt;br&gt;&lt;br&gt;+ combos [&lt;br&gt;&amp;nbsp; &amp;nbsp;platos,&lt;br&gt;&amp;nbsp; &amp;nbsp;bebidas,&lt;br&gt;&amp;nbsp; &amp;nbsp;]&lt;/div&gt;" style="text;html=1;strokeColor=none;fillColor=none;align=left;verticalAlign=top;spacingLeft=4;spacingRight=4;whiteSpace=wrap;overflow=hidden;rotatable=0;points=[[0,0.5],[1,0.5]];portConstraint=eastwest;" parent="78961159f06e98e8-69" vertex="1">
          <mxGeometry y="26" width="160" height="204" as="geometry" />
        </mxCell>
        <mxCell id="78961159f06e98e8-82" value="Items" style="swimlane;html=1;fontStyle=1;align=center;verticalAlign=top;childLayout=stackLayout;horizontal=1;startSize=26;horizontalStack=0;resizeParent=1;resizeLast=0;collapsible=1;marginBottom=0;swimlaneFillColor=#ffffff;rounded=0;shadow=0;comic=0;labelBackgroundColor=none;strokeWidth=1;fillColor=none;fontFamily=Verdana;fontSize=12" parent="1" vertex="1">
          <mxGeometry x="550" y="-170" width="160" height="200" as="geometry" />
        </mxCell>
        <mxCell id="78961159f06e98e8-83" value="+ nombre&lt;div&gt;&lt;br&gt;&lt;/div&gt;&lt;div&gt;+ descripcion&lt;/div&gt;&lt;div&gt;&lt;br&gt;&lt;/div&gt;&lt;div&gt;+ versiones&lt;/div&gt;&lt;div&gt;&lt;br&gt;&lt;/div&gt;&lt;div&gt;+ precios&lt;/div&gt;&lt;div&gt;&lt;br&gt;&lt;/div&gt;&lt;div&gt;+ fotos referenciales&lt;br&gt;&lt;br&gt;+ cantidad de favs&lt;/div&gt;" style="text;html=1;strokeColor=none;fillColor=none;align=left;verticalAlign=top;spacingLeft=4;spacingRight=4;whiteSpace=wrap;overflow=hidden;rotatable=0;points=[[0,0.5],[1,0.5]];portConstraint=eastwest;" parent="78961159f06e98e8-82" vertex="1">
          <mxGeometry y="26" width="160" height="174" as="geometry" />
        </mxCell>
        <mxCell id="78961159f06e98e8-121" value="&lt;p style=&quot;line-height: 120%;&quot;&gt;&lt;br&gt;&lt;br&gt;&lt;br&gt;Posee permisos y &lt;br&gt;funcionalidades de:&lt;/p&gt;" style="edgeStyle=elbowEdgeStyle;html=1;labelBackgroundColor=none;startFill=0;startSize=8;endArrow=diamondThin;endFill=0;endSize=16;fontFamily=Verdana;fontSize=12;elbow=vertical;" parent="1" edge="1">
          <mxGeometry y="37" relative="1" as="geometry">
            <mxPoint x="261" y="-453" as="sourcePoint" />
            <mxPoint x="441" y="-453" as="targetPoint" />
            <mxPoint as="offset" />
          </mxGeometry>
        </mxCell>
        <mxCell id="zu_qVnv33TRWZN3CnCPS-2" value="&lt;p style=&quot;line-height: 120%;&quot;&gt;&lt;br&gt;&lt;br&gt;&lt;br&gt;Posee permisos y &lt;br&gt;funcionalidades de:&lt;/p&gt;" style="edgeStyle=elbowEdgeStyle;html=1;labelBackgroundColor=none;startFill=0;startSize=8;endArrow=diamondThin;endFill=0;endSize=16;fontFamily=Verdana;fontSize=12;elbow=vertical;" parent="1" edge="1">
          <mxGeometry x="-0.0667" y="40" relative="1" as="geometry">
            <mxPoint x="600" y="-440" as="sourcePoint" />
            <mxPoint x="750" y="-440" as="targetPoint" />
            <mxPoint as="offset" />
            <Array as="points">
              <mxPoint x="720" y="-440" />
            </Array>
          </mxGeometry>
        </mxCell>
        <mxCell id="zu_qVnv33TRWZN3CnCPS-5" value="&lt;p style=&quot;line-height: 120%;&quot;&gt;&lt;br&gt;&lt;br&gt;&lt;br&gt;Posee permisos y &lt;br&gt;funcionalidades de:&lt;/p&gt;" style="edgeStyle=elbowEdgeStyle;html=1;labelBackgroundColor=none;startFill=0;startSize=8;endArrow=diamondThin;endFill=0;endSize=16;fontFamily=Verdana;fontSize=12;elbow=vertical;" parent="1" edge="1">
          <mxGeometry x="-0.0111" y="47" relative="1" as="geometry">
            <mxPoint x="1364" y="-420" as="sourcePoint" />
            <mxPoint x="1544" y="-420" as="targetPoint" />
            <mxPoint as="offset" />
            <Array as="points">
              <mxPoint x="1453" y="-420" />
            </Array>
          </mxGeometry>
        </mxCell>
        <mxCell id="zu_qVnv33TRWZN3CnCPS-7" value="Visitante" style="swimlane;html=1;fontStyle=1;align=center;verticalAlign=top;childLayout=stackLayout;horizontal=1;startSize=26;horizontalStack=0;resizeParent=1;resizeLast=0;collapsible=1;marginBottom=0;swimlaneFillColor=#ffffff;rounded=0;shadow=0;comic=0;labelBackgroundColor=none;strokeWidth=1;fillColor=none;fontFamily=Verdana;fontSize=12" parent="1" vertex="1">
          <mxGeometry x="1544" y="-527" width="160" height="250" as="geometry" />
        </mxCell>
        <mxCell id="zu_qVnv33TRWZN3CnCPS-8" value="+ Ver menús públicos o carta de artículos de un negocio - marca.&amp;nbsp;&lt;br&gt;&lt;br&gt;+ Ver en modo read only el perfil de un negocio o comercio, incluyendo las calificaciones, posteos donde le hayan linkeado, etc.&lt;br&gt;&lt;div&gt;&lt;br&gt;+ darse de alta como usuario registrado.&lt;/div&gt;" style="text;html=1;strokeColor=none;fillColor=none;align=left;verticalAlign=top;spacingLeft=4;spacingRight=4;whiteSpace=wrap;overflow=hidden;rotatable=0;points=[[0,0.5],[1,0.5]];portConstraint=eastwest;" parent="zu_qVnv33TRWZN3CnCPS-7" vertex="1">
          <mxGeometry y="26" width="160" height="224" as="geometry" />
        </mxCell>
        <mxCell id="zu_qVnv33TRWZN3CnCPS-10" value="Promociones" style="swimlane;html=1;fontStyle=1;align=center;verticalAlign=top;childLayout=stackLayout;horizontal=1;startSize=26;horizontalStack=0;resizeParent=1;resizeLast=0;collapsible=1;marginBottom=0;swimlaneFillColor=#ffffff;rounded=0;shadow=0;comic=0;labelBackgroundColor=none;strokeWidth=1;fillColor=none;fontFamily=Verdana;fontSize=12" parent="1" vertex="1">
          <mxGeometry x="340" y="60" width="250" height="300" as="geometry" />
        </mxCell>
        <mxCell id="zu_qVnv33TRWZN3CnCPS-11" value="+ Titulo&lt;div&gt;&lt;br&gt;&lt;/div&gt;&lt;div&gt;+ Contenido / descripción&lt;/div&gt;&lt;div&gt;&lt;br&gt;&lt;/div&gt;&lt;div&gt;+ Item(s) en promoción (opcional)&lt;br&gt;&lt;div&gt;&lt;br&gt;&lt;/div&gt;&lt;div&gt;+ Período de vigencia&lt;/div&gt;&lt;div&gt;&lt;br&gt;&lt;/div&gt;&lt;div&gt;+ Condiciones (opcional)&lt;/div&gt;&lt;/div&gt;&lt;div&gt;&lt;br&gt;+ fotos referenciales&lt;/div&gt;&lt;div&gt;&lt;br&gt;&lt;/div&gt;&lt;div&gt;+ sucursales o sede (opcional)&lt;/div&gt;&lt;div&gt;&lt;br&gt;&lt;/div&gt;&lt;div&gt;+ nombre del negocio y calificaciones&lt;/div&gt;" style="text;html=1;strokeColor=none;fillColor=none;align=left;verticalAlign=top;spacingLeft=4;spacingRight=4;whiteSpace=wrap;overflow=hidden;rotatable=0;points=[[0,0.5],[1,0.5]];portConstraint=eastwest;" parent="zu_qVnv33TRWZN3CnCPS-10" vertex="1">
          <mxGeometry y="26" width="250" height="274" as="geometry" />
        </mxCell>
        <mxCell id="zu_qVnv33TRWZN3CnCPS-12" style="edgeStyle=elbowEdgeStyle;html=1;labelBackgroundColor=none;startFill=0;startSize=8;endArrow=diamondThin;endFill=0;endSize=16;fontFamily=Verdana;fontSize=12;elbow=vertical;" parent="1" target="zu_qVnv33TRWZN3CnCPS-11" edge="1">
          <mxGeometry relative="1" as="geometry">
            <mxPoint x="260" y="210" as="sourcePoint" />
            <mxPoint x="320" y="150" as="targetPoint" />
            <Array as="points">
              <mxPoint x="300" y="210" />
            </Array>
          </mxGeometry>
        </mxCell>
        <mxCell id="zu_qVnv33TRWZN3CnCPS-13" value="Novedades" style="swimlane;html=1;fontStyle=1;align=center;verticalAlign=top;childLayout=stackLayout;horizontal=1;startSize=26;horizontalStack=0;resizeParent=1;resizeLast=0;collapsible=1;marginBottom=0;swimlaneFillColor=#ffffff;rounded=0;shadow=0;comic=0;labelBackgroundColor=none;strokeWidth=1;fillColor=none;fontFamily=Verdana;fontSize=12" parent="1" vertex="1">
          <mxGeometry x="340" y="380" width="250" height="300" as="geometry" />
        </mxCell>
        <mxCell id="zu_qVnv33TRWZN3CnCPS-14" value="+ Pueden ser de tipo Nueva Sucursal, Nuevo ítem, eventos especiales, apertura, nuevo servicio (take away, delivery, reservas, etc.).&lt;div&gt;&lt;br&gt;&lt;/div&gt;&lt;div&gt;+ Contenido / descripción&lt;/div&gt;&lt;div&gt;&lt;br&gt;&lt;/div&gt;&lt;div&gt;&lt;div&gt;+ Fecha relevante (opcional)&lt;/div&gt;&lt;/div&gt;&lt;div&gt;&lt;br&gt;+ fotos referenciales&lt;/div&gt;&lt;div&gt;&lt;br&gt;&lt;/div&gt;&lt;div&gt;+ sucursales o sede (opcional)&lt;/div&gt;&lt;div&gt;&lt;br&gt;&lt;/div&gt;&lt;div&gt;+ dirección, categoría, nombre del negocio y calificaciones.&lt;br&gt;&lt;br&gt;+ promociones (opcional)&lt;/div&gt;" style="text;html=1;strokeColor=none;fillColor=none;align=left;verticalAlign=top;spacingLeft=4;spacingRight=4;whiteSpace=wrap;overflow=hidden;rotatable=0;points=[[0,0.5],[1,0.5]];portConstraint=eastwest;" parent="zu_qVnv33TRWZN3CnCPS-13" vertex="1">
          <mxGeometry y="26" width="250" height="274" as="geometry" />
        </mxCell>
        <mxCell id="zu_qVnv33TRWZN3CnCPS-15" style="edgeStyle=elbowEdgeStyle;html=1;labelBackgroundColor=none;startFill=0;startSize=8;endArrow=diamondThin;endFill=0;endSize=16;fontFamily=Verdana;fontSize=12;elbow=vertical;" parent="1" edge="1">
          <mxGeometry relative="1" as="geometry">
            <mxPoint x="260" y="490" as="sourcePoint" />
            <mxPoint x="340" y="490" as="targetPoint" />
            <Array as="points">
              <mxPoint x="300" y="490" />
            </Array>
          </mxGeometry>
        </mxCell>
        <mxCell id="zu_qVnv33TRWZN3CnCPS-16" value="Sistema de Cobranzas" style="swimlane;html=1;fontStyle=1;align=center;verticalAlign=top;childLayout=stackLayout;horizontal=1;startSize=26;horizontalStack=0;resizeParent=1;resizeLast=0;collapsible=1;marginBottom=0;swimlaneFillColor=#ffffff;rounded=0;shadow=0;comic=0;labelBackgroundColor=none;strokeWidth=1;fillColor=none;fontFamily=Verdana;fontSize=12" parent="1" vertex="1">
          <mxGeometry x="90" y="640" width="180" height="190" as="geometry" />
        </mxCell>
        <mxCell id="zu_qVnv33TRWZN3CnCPS-17" value="+ proximamente mas informacion" style="text;html=1;strokeColor=none;fillColor=none;align=left;verticalAlign=top;spacingLeft=4;spacingRight=4;whiteSpace=wrap;overflow=hidden;rotatable=0;points=[[0,0.5],[1,0.5]];portConstraint=eastwest;" parent="zu_qVnv33TRWZN3CnCPS-16" vertex="1">
          <mxGeometry y="26" width="180" height="164" as="geometry" />
        </mxCell>
        <mxCell id="zu_qVnv33TRWZN3CnCPS-18" value="" style="edgeStyle=none;orthogonalLoop=1;jettySize=auto;html=1;rounded=0;entryX=0.5;entryY=0;entryDx=0;entryDy=0;exitX=0.506;exitY=1.005;exitDx=0;exitDy=0;exitPerimeter=0;" parent="1" source="78961159f06e98e8-57" target="zu_qVnv33TRWZN3CnCPS-16" edge="1">
          <mxGeometry width="100" relative="1" as="geometry">
            <mxPoint x="130" y="570" as="sourcePoint" />
            <mxPoint x="230" y="570" as="targetPoint" />
            <Array as="points" />
          </mxGeometry>
        </mxCell>
        <mxCell id="zu_qVnv33TRWZN3CnCPS-19" value="Delivery" style="swimlane;html=1;fontStyle=1;align=center;verticalAlign=top;childLayout=stackLayout;horizontal=1;startSize=26;horizontalStack=0;resizeParent=1;resizeLast=0;collapsible=1;marginBottom=0;swimlaneFillColor=#ffffff;rounded=0;shadow=0;comic=0;labelBackgroundColor=none;strokeWidth=1;fillColor=none;fontFamily=Verdana;fontSize=12" parent="1" vertex="1">
          <mxGeometry x="340" y="750" width="250" height="190" as="geometry" />
        </mxCell>
        <mxCell id="zu_qVnv33TRWZN3CnCPS-20" value="+ proximamente mas informacion" style="text;html=1;strokeColor=none;fillColor=none;align=left;verticalAlign=top;spacingLeft=4;spacingRight=4;whiteSpace=wrap;overflow=hidden;rotatable=0;points=[[0,0.5],[1,0.5]];portConstraint=eastwest;" parent="zu_qVnv33TRWZN3CnCPS-19" vertex="1">
          <mxGeometry y="26" width="250" height="164" as="geometry" />
        </mxCell>
        <mxCell id="zu_qVnv33TRWZN3CnCPS-21" value="Take Away" style="swimlane;html=1;fontStyle=1;align=center;verticalAlign=top;childLayout=stackLayout;horizontal=1;startSize=26;horizontalStack=0;resizeParent=1;resizeLast=0;collapsible=1;marginBottom=0;swimlaneFillColor=#ffffff;rounded=0;shadow=0;comic=0;labelBackgroundColor=none;strokeWidth=1;fillColor=none;fontFamily=Verdana;fontSize=12" parent="1" vertex="1">
          <mxGeometry x="630" y="750" width="250" height="190" as="geometry" />
        </mxCell>
        <mxCell id="zu_qVnv33TRWZN3CnCPS-22" value="+ proximamente mas informacion" style="text;html=1;strokeColor=none;fillColor=none;align=left;verticalAlign=top;spacingLeft=4;spacingRight=4;whiteSpace=wrap;overflow=hidden;rotatable=0;points=[[0,0.5],[1,0.5]];portConstraint=eastwest;" parent="zu_qVnv33TRWZN3CnCPS-21" vertex="1">
          <mxGeometry y="26" width="250" height="164" as="geometry" />
        </mxCell>
        <mxCell id="zu_qVnv33TRWZN3CnCPS-23" value="Pago on Site" style="swimlane;html=1;fontStyle=1;align=center;verticalAlign=top;childLayout=stackLayout;horizontal=1;startSize=26;horizontalStack=0;resizeParent=1;resizeLast=0;collapsible=1;marginBottom=0;swimlaneFillColor=#ffffff;rounded=0;shadow=0;comic=0;labelBackgroundColor=none;strokeWidth=1;fillColor=none;fontFamily=Verdana;fontSize=12" parent="1" vertex="1">
          <mxGeometry x="920" y="750" width="250" height="190" as="geometry" />
        </mxCell>
        <mxCell id="zu_qVnv33TRWZN3CnCPS-24" value="+ proximamente mas informacion" style="text;html=1;strokeColor=none;fillColor=none;align=left;verticalAlign=top;spacingLeft=4;spacingRight=4;whiteSpace=wrap;overflow=hidden;rotatable=0;points=[[0,0.5],[1,0.5]];portConstraint=eastwest;" parent="zu_qVnv33TRWZN3CnCPS-23" vertex="1">
          <mxGeometry y="26" width="250" height="164" as="geometry" />
        </mxCell>
        <mxCell id="zu_qVnv33TRWZN3CnCPS-25" value="" style="endArrow=classic;html=1;rounded=0;exitX=0.456;exitY=1.018;exitDx=0;exitDy=0;exitPerimeter=0;entryX=0.596;entryY=1.024;entryDx=0;entryDy=0;entryPerimeter=0;" parent="1" source="zu_qVnv33TRWZN3CnCPS-17" target="zu_qVnv33TRWZN3CnCPS-24" edge="1">
          <mxGeometry width="50" height="50" relative="1" as="geometry">
            <mxPoint x="520" y="790" as="sourcePoint" />
            <mxPoint x="1070" y="1030" as="targetPoint" />
            <Array as="points">
              <mxPoint x="170" y="1030" />
              <mxPoint x="1069" y="1030" />
            </Array>
          </mxGeometry>
        </mxCell>
        <mxCell id="zu_qVnv33TRWZN3CnCPS-27" value="" style="endArrow=classic;html=1;rounded=0;entryX=0.48;entryY=1;entryDx=0;entryDy=0;entryPerimeter=0;" parent="1" target="zu_qVnv33TRWZN3CnCPS-20" edge="1">
          <mxGeometry width="50" height="50" relative="1" as="geometry">
            <mxPoint x="460" y="1030" as="sourcePoint" />
            <mxPoint x="460" y="950" as="targetPoint" />
          </mxGeometry>
        </mxCell>
        <mxCell id="zu_qVnv33TRWZN3CnCPS-28" value="" style="endArrow=classic;html=1;rounded=0;entryX=0.5;entryY=1;entryDx=0;entryDy=0;entryPerimeter=0;" parent="1" target="zu_qVnv33TRWZN3CnCPS-22" edge="1">
          <mxGeometry width="50" height="50" relative="1" as="geometry">
            <mxPoint x="754.5" y="1030" as="sourcePoint" />
            <mxPoint x="755" y="950" as="targetPoint" />
          </mxGeometry>
        </mxCell>
        <mxCell id="zu_qVnv33TRWZN3CnCPS-29" value="Empleado" style="swimlane;html=1;fontStyle=1;align=center;verticalAlign=top;childLayout=stackLayout;horizontal=1;startSize=26;horizontalStack=0;resizeParent=1;resizeLast=0;collapsible=1;marginBottom=0;swimlaneFillColor=#ffffff;rounded=0;shadow=0;comic=0;labelBackgroundColor=none;strokeWidth=1;fillColor=none;fontFamily=Verdana;fontSize=12" parent="1" vertex="1">
          <mxGeometry x="754" y="-527" width="160" height="177" as="geometry" />
        </mxCell>
        <mxCell id="zu_qVnv33TRWZN3CnCPS-30" value="+ Recibir, aprobar, procesar y facturar pedidos de usuarios.&lt;br&gt;&lt;br&gt;+ Gestion y manejo de delivery y take away&lt;br&gt;&lt;div&gt;&lt;br&gt;+ entrega de mesas reservadas&lt;/div&gt;" style="text;html=1;strokeColor=none;fillColor=none;align=left;verticalAlign=top;spacingLeft=4;spacingRight=4;whiteSpace=wrap;overflow=hidden;rotatable=0;points=[[0,0.5],[1,0.5]];portConstraint=eastwest;" parent="zu_qVnv33TRWZN3CnCPS-29" vertex="1">
          <mxGeometry y="26" width="160" height="144" as="geometry" />
        </mxCell>
        <mxCell id="zu_qVnv33TRWZN3CnCPS-31" value="&lt;p style=&quot;line-height: 120%;&quot;&gt;&lt;br&gt;&lt;br&gt;&lt;br&gt;Posee permisos y &lt;br&gt;funcionalidades de:&lt;/p&gt;" style="edgeStyle=elbowEdgeStyle;html=1;labelBackgroundColor=none;startFill=0;startSize=8;endArrow=diamondThin;endFill=0;endSize=16;fontFamily=Verdana;fontSize=12;elbow=vertical;" parent="1" edge="1">
          <mxGeometry x="-0.0667" y="40" relative="1" as="geometry">
            <mxPoint x="914" y="-440" as="sourcePoint" />
            <mxPoint x="1064" y="-440" as="targetPoint" />
            <mxPoint as="offset" />
            <Array as="points">
              <mxPoint x="1034" y="-440" />
            </Array>
          </mxGeometry>
        </mxCell>
        <mxCell id="zu_qVnv33TRWZN3CnCPS-32" value="" style="shape=image;verticalLabelPosition=bottom;labelBackgroundColor=default;verticalAlign=top;aspect=fixed;imageAspect=0;image=data:image/png,iVBORw0KGgoAAAANSUhEUgAABO4AAAGgCAYAAAAdEigIAAAABGdBTUEAALGOfPtRkwAAACBjSFJNAACHDwAAjA8AAP1SAACBQAAAfXkAAOmLAAA85QAAGcxzPIV3AAAKL2lDQ1BJQ0MgUHJvZmlsZQAASMedlndUVNcWh8+9d3qhzTDSGXqTLjCA9C4gHQRRGGYGGMoAwwxNbIioQEQREQFFkKCAAaOhSKyIYiEoqGAPSBBQYjCKqKhkRtZKfHl57+Xl98e939pn73P32XuftS4AJE8fLi8FlgIgmSfgB3o401eFR9Cx/QAGeIABpgAwWempvkHuwUAkLzcXerrICfyL3gwBSPy+ZejpT6eD/0/SrFS+AADIX8TmbE46S8T5Ik7KFKSK7TMipsYkihlGiZkvSlDEcmKOW+Sln30W2VHM7GQeW8TinFPZyWwx94h4e4aQI2LER8QFGVxOpohvi1gzSZjMFfFbcWwyh5kOAIoktgs4rHgRm4iYxA8OdBHxcgBwpLgvOOYLFnCyBOJDuaSkZvO5cfECui5Lj25qbc2ge3IykzgCgaE/k5XI5LPpLinJqUxeNgCLZ/4sGXFt6aIiW5paW1oamhmZflGo/7r4NyXu7SK9CvjcM4jW94ftr/xS6gBgzIpqs+sPW8x+ADq2AiB3/w+b5iEAJEV9a7/xxXlo4nmJFwhSbYyNMzMzjbgclpG4oL/rfzr8DX3xPSPxdr+Xh+7KiWUKkwR0cd1YKUkpQj49PZXJ4tAN/zzE/zjwr/NYGsiJ5fA5PFFEqGjKuLw4Ubt5bK6Am8Kjc3n/qYn/MOxPWpxrkSj1nwA1yghI3aAC5Oc+gKIQARJ5UNz13/vmgw8F4psXpjqxOPefBf37rnCJ+JHOjfsc5xIYTGcJ+RmLa+JrCdCAACQBFcgDFaABdIEhMANWwBY4AjewAviBYBAO1gIWiAfJgA8yQS7YDApAEdgF9oJKUAPqQSNoASdABzgNLoDL4Dq4Ce6AB2AEjIPnYAa8AfMQBGEhMkSB5CFVSAsygMwgBmQPuUE+UCAUDkVDcRAPEkK50BaoCCqFKqFaqBH6FjoFXYCuQgPQPWgUmoJ+hd7DCEyCqbAyrA0bwwzYCfaGg+E1cBycBufA+fBOuAKug4/B7fAF+Dp8Bx6Bn8OzCECICA1RQwwRBuKC+CERSCzCRzYghUg5Uoe0IF1IL3ILGUGmkXcoDIqCoqMMUbYoT1QIioVKQ21AFaMqUUdR7age1C3UKGoG9QlNRiuhDdA2aC/0KnQcOhNdgC5HN6Db0JfQd9Dj6DcYDIaG0cFYYTwx4ZgEzDpMMeYAphVzHjOAGcPMYrFYeawB1g7rh2ViBdgC7H7sMew57CB2HPsWR8Sp4sxw7rgIHA+XhyvHNeHO4gZxE7h5vBReC2+D98Oz8dn4Enw9vgt/Az+OnydIE3QIdoRgQgJhM6GC0EK4RHhIeEUkEtWJ1sQAIpe4iVhBPE68QhwlviPJkPRJLqRIkpC0k3SEdJ50j/SKTCZrkx3JEWQBeSe5kXyR/Jj8VoIiYSThJcGW2ChRJdEuMSjxQhIvqSXpJLlWMkeyXPKk5A3JaSm8lLaUixRTaoNUldQpqWGpWWmKtKm0n3SydLF0k/RV6UkZrIy2jJsMWyZf5rDMRZkxCkLRoLhQWJQtlHrKJco4FUPVoXpRE6hF1G+o/dQZWRnZZbKhslmyVbJnZEdoCE2b5kVLopXQTtCGaO+XKC9xWsJZsmNJy5LBJXNyinKOchy5QrlWuTty7+Xp8m7yifK75TvkHymgFPQVAhQyFQ4qXFKYVqQq2iqyFAsVTyjeV4KV9JUCldYpHVbqU5pVVlH2UE5V3q98UXlahabiqJKgUqZyVmVKlaJqr8pVLVM9p/qMLkt3oifRK+g99Bk1JTVPNaFarVq/2ry6jnqIep56q/ojDYIGQyNWo0yjW2NGU1XTVzNXs1nzvhZei6EVr7VPq1drTltHO0x7m3aH9qSOnI6XTo5Os85DXbKug26abp3ubT2MHkMvUe+A3k19WN9CP16/Sv+GAWxgacA1OGAwsBS91Hopb2nd0mFDkqGTYYZhs+GoEc3IxyjPqMPohbGmcYTxbuNe408mFiZJJvUmD0xlTFeY5pl2mf5qpm/GMqsyu21ONnc332jeaf5ymcEyzrKDy+5aUCx8LbZZdFt8tLSy5Fu2WE5ZaVpFW1VbDTOoDH9GMeOKNdra2Xqj9WnrdzaWNgKbEza/2BraJto22U4u11nOWV6/fMxO3Y5pV2s3Yk+3j7Y/ZD/ioObAdKhzeOKo4ch2bHCccNJzSnA65vTC2cSZ79zmPOdi47Le5bwr4urhWuja7ybjFuJW6fbYXd09zr3ZfcbDwmOdx3lPtKe3527PYS9lL5ZXo9fMCqsV61f0eJO8g7wrvZ/46Pvwfbp8Yd8Vvnt8H67UWslb2eEH/Lz89vg98tfxT/P/PgAT4B9QFfA00DQwN7A3iBIUFdQU9CbYObgk+EGIbogwpDtUMjQytDF0Lsw1rDRsZJXxqvWrrocrhHPDOyOwEaERDRGzq91W7109HmkRWRA5tEZnTdaaq2sV1iatPRMlGcWMOhmNjg6Lbor+wPRj1jFnY7xiqmNmWC6sfaznbEd2GXuKY8cp5UzE2sWWxk7G2cXtiZuKd4gvj5/munAruS8TPBNqEuYS/RKPJC4khSW1JuOSo5NP8WR4ibyeFJWUrJSBVIPUgtSRNJu0vWkzfG9+QzqUvia9U0AV/Uz1CXWFW4WjGfYZVRlvM0MzT2ZJZ/Gy+rL1s3dkT+S453y9DrWOta47Vy13c+7oeqf1tRugDTEbujdqbMzfOL7JY9PRzYTNiZt/yDPJK817vSVsS1e+cv6m/LGtHlubCyQK+AXD22y31WxHbedu799hvmP/jk+F7MJrRSZF5UUfilnF174y/ariq4WdsTv7SyxLDu7C7OLtGtrtsPtoqXRpTunYHt897WX0ssKy13uj9l4tX1Zes4+wT7hvpMKnonO/5v5d+z9UxlfeqXKuaq1Wqt5RPXeAfWDwoOPBlhrlmqKa94e4h+7WetS212nXlR/GHM44/LQ+tL73a8bXjQ0KDUUNH4/wjowcDTza02jV2Nik1FTSDDcLm6eORR67+Y3rN50thi21rbTWouPguPD4s2+jvx064X2i+yTjZMt3Wt9Vt1HaCtuh9uz2mY74jpHO8M6BUytOdXfZdrV9b/T9kdNqp6vOyJ4pOUs4m3924VzOudnzqeenL8RdGOuO6n5wcdXF2z0BPf2XvC9duex++WKvU++5K3ZXTl+1uXrqGuNax3XL6+19Fn1tP1j80NZv2d9+w+pG503rm10DywfODjoMXrjleuvyba/b1++svDMwFDJ0dzhyeOQu++7kvaR7L+9n3J9/sOkh+mHhI6lH5Y+VHtf9qPdj64jlyJlR19G+J0FPHoyxxp7/lP7Th/H8p+Sn5ROqE42TZpOnp9ynbj5b/Wz8eerz+emCn6V/rn6h++K7Xxx/6ZtZNTP+kv9y4dfiV/Kvjrxe9rp71n/28ZvkN/NzhW/l3x59x3jX+z7s/cR85gfsh4qPeh+7Pnl/eriQvLDwG/eE8/s3BCkeAAAACXBIWXMAAC4jAAAuIwF4pT92AAAAIXRFWHRDcmVhdGlvbiBUaW1lADIwMjM6MDU6MjkgMTA6MTM6Mzejt//PAACilklEQVR4XuzdB4AcdfUH8Pdmr6RREkpoSgkiKCIIGASxRKoICqgHuYJiQwVDS3J3dv17JSFgKBIFQe8ugVMBkWJQCCKCYARF0FAMvZeEEEJyZef93+/mHZLkys7u7O7M7vfz/w+/92YRwt3Ut7/CIkIAAAAAAAAAAAAQLyjcAYzCY48bqW4KkbxHz5Z36GmzExNtq/kk/Xi8EGsq/Uz8upCs0M+f1B3L00T3C7147xxZvCb4JwEAAAAAAAAAZA6FO4ANTONpFe+n7ffziD6qp8gHddcHdJs48GF4fbot1bPshn5KXz1XFj4Y7AYAAAAAAAAAGBkKdwDqTG7Ydgz5hwt5RzLRYbpr8+CTyP1Dt0t9Wt3ZJtesDnYBAAAAAAAAAGwMhTsoS65X3VTa9gCi1JFM8nE9Fd6ruzn4tCBW6pl3US/1nDdPulfYPgAAAAAAAACAN6FwB2WjgL3qwlglJOf20Jrzz5WrX7V9AAAAAAAAAAAo3EHpikGvujBeFZLWN2jF/PlyQ4/tAwAAAAAAAIAyhsIdlJSgV50cqUf1kUx8iO6KQ6+6MB5OU/rL7bLwNssBAAAAAAAAoEyhcAeJlrBedZlyZ+W8R6nnm93S3Wv7AAAAAAAAAKDMoHAHiVMCveoydedaSh93nix8wXIAAAAAAAAAKCMo3EHslWivukw90UfpI+bKwgctBwAAAAAAAIAygcIdxFIZ9arLxMv6czikVTrusxwAAAAAAAAAygAKdxALZd6rLhMv+dT34Ta5YpnlAAAAAAAAAFDiULiDokGvutAeX0d04LnS8ZzlAAAAAAAAAFDCULiDgkGvuijIHcupdxpWmwUAAAAAAAAofSjcQV6hV10+yLwW6TzbEgAAAAAAAAAoUSjcQaTQq64gfJ/8Q9qk61bLAQAAAAAAAKAEoXAHOUOvuqL4bw/17DVPutdaDgAAAAAAAAAlBoU7CC3oVbf9gRoeyURHoFddcQjJd1ul8weWAgAAAAAAAECJQeEOMoJedbH0epp63tEu3c9bDgAAAAAAAAAlBIU7GBJ61SWDnr3ntkrHWZYCAAAAAAAAQAlB4Q7ehF51ibSmh3rePk+6V1gOAAAAAAAAACUChbsyhl51JWNWi3TMtRgAAAAAAAAASgQKd2UGvepKj5A80k4L3+mLj5MZAAAAAAAAoISgcFfi0KuuPPSTf+Ac6fqrpQAAAAAAAABQAlC4K0HoVVd+9HeNRSoAAAAAAAAASgwKdyUAvepA/bdFOt5hMQAAAAAAAACUABTuEgq96mBDfSQ7zZXOJywFAAAAAAAAgIRD4S4h0KsORiMkta3SuchSAAAAAAAAAEg4FO5i7Cyu2b6aqo8UksPRqw5GJ/NapPNsSwAAAACgxOj7wViPKnb0iCbr+8EWTN4EJqoi8nUX9eq2RreV/SQv9tPaJ8+Vq191/zsAAEguFO5iBL3qIDdyfYt0Hm0JAAAAACRYIx+7CdMmH9LwAH0h2E/bd+n2Nt3CvB+8otsyfeO7n0n+nia5vV26Hgk+AgCAJEDhrsjQqw4i9O8W6djTYgAAAABImDO4dvJYSh2vods+qFuV2x+xJ4nkRn3/+O3d9OwtS2RJv+0HAIAYQuGuwNCrDvLopRbp2NpiAAAAAEgAjz1upOkf0+jrmh6lW+XAB4XxIpEs6qX+i8+RKx62fWXJFU2riXf0iLfXn8lWQt4kbcfqq1pF8HdIv8ZrmfwV2r7kkzzTQ/LEebLwheBzAID8QOGuANCrDgqkp0U6xlgMAAAAADHmCnaz6MRPepT6jqb7BHuLxne98NJEbe3SeYftK1nNXDfRJ/kwU+pgJtlPiPdkokn2cVgr9Wd3v/4z/i6Uvt0jvq1FunQfAEA0ULjLA/SqgyKRFulwExMDAAAAQIw1cv0BHvGPNZwa7ImVP+gb4qxW6bjP8pIwm2u2Yao6QX/un9TUDUO2nnSRS+tj+R26/XYdeVeeKx3P2X4AgKygcBeRDXrVHaq7Ngs+ASiY3hbpqLYYAAAAAGJmBtdvOp6oVV/DTtE0zl+4pnW7SKjnO63SvSrYlTxvGYb8DU0/rltq4IPCcT/HG31KXzCHrrjZFx8v3wAQGgp3WUKvOoihlS3SkW0XfwAAAADII+tlt1DDXYI9ifAkUfrzLbJwieWJMZvrP5EidsOQ9w/2FJe+dd+r2/fbpON3tgsAICMo3IWAXnUQZ3pcPtIqnbtZCgAAAAAx0cj1p3vEczQs5MITUXHdxNoepZ7vdEu360EWa01c+26i1Hwm+pjtips/6XP7N/S5/X7LAQBGhMLdCE7h/Ssn0R4HBYU69KqD2FvSIh1xfUABAAAAKDvufWIi7fFTfYH4vO1KLH1rvImopyauQ2ft3e3bGs7WrWpgZ3z16U90znLq/UG3dPfaPgCAIaFwtwH0qoME+1mLdHzFYgAAAAAooll8xPgK2vpqDQ8L9pSEB3zqP7xNFj1reSzM5ulTPKq4kon2s10JIfekSU5sl65HbAcAwEbKvnCHXnVQKvQYPrVVOi+yFAAAAACK5FSumbApVd+o4cHBntKhb4/LiXqmtUr3k7arqJq4Tt/jvCs0nBjsSZxX0+TXtkuXO14AADZSloU79KqDUtRP/QfMkUV3WwoAAAAARXAyTxszmXa4nuM7x1oUHl5L6Q+dJwtfsLwomrnhi9pcrFvFwI7kShPJqS3SucByAIA3lUXhDr3qoAysWUHLJi6QpX2WAwAAAEARNHNDpzZ1QVbS7n6env7IZbJkneUF1cz1Z+kr3TmWlorGFulotxgAYEDJFu7Qqw7KzA16k/+ExQAAAABQBE3ccCYTzbO0HPxCn0ELvvBGKf+c9f11dqt0uhWIAQAGlEzhDr3qoLzJV9G1HgAAAKB4Gnn6fh5V3KFh3Fc0jZS+Tda3SkeXpXnXyPUnecSXa1iq73r6I5Uv6rP9ZZYnUjPXTfSJ36n/LVOYeHv9dW3FJJP0P26M5pXapvUXuE7btfr3vKSfPZMmejpF/n/a6MonfPH1I4DouYWDPNry3UzeTpruoMfedtqO12N0jB6LY4VYD03p17+8pgfhq7o95xE91U/9j/TQa4/Mlxt6Bv5BBZTowh161QEMSPfTmu3myFUvWg4AAAAABVTDNVVTqPpeDd8d7CkrK9fpf/e50vGc5XkzmxsOThHdrGGpF0fd9DeHtUjHn4I0/mZy/bsqiafpu/mH9d38/brr7cEnWVml2z/1n7VEiP7wGPUu7ZbudPARQDhncO3kMeR9LKgZyQFE/A7drZeSrPTpMXk/k9zlE93qkdzSIl0r7bO8SVThDr3qAIZ0o97Uj7IYAAAAAAqsmeu/qa8l/2dpGZLuFuk8wZK8mM0126So+p8aTg72lLyXfOrfu00WPWt57DTyiXswVTTosf8ZfSmfYrvzwXVQuNInf2GbdP0t2AUwPNfjU5vP6LFZq9sHNfYGPohev25/1mvgQp9e/3WbXLM62B2t2Bfu0KsOYGR6Azteb2BXWwoAAAAABXQmN2w7huhhDScEe8qSpEkObpdON1Q4ch573Eh1f9DwkGBPedB34FvbaeEhvvi+7So6/V14jTT9eI2+oakriBTaUp9kzmPUew164cGGmnn6TkQVZ2j4Bd3GD+wsnNVC1MVE57ZIx39tXyRiV7hDrzqAUJ68i56eskSWuEo/AAAAABRYMzdcoM2pQVbWbtOX1Y9YHKkmbviqvhD+xNKyou/F32iVTneMFZUrns6mus8wyff19Xx3211My9Iks9ql83rLoYzN5NotKyn1XQ1P0a1iYGfx6Lu5LBTq/U6rdD9p+3ISi8JdI9fv4BEfgV51AGHJ2S3SWU4rlwEAAADEhps7aSylHtNwbLCnvAmlD26VhX+xNBLWo/EhDTcJ9pSd132SPdqk82nLC66Za/chSrnC6QHBnvgQopuIer4cVYEEkqeZ675M5LVruHmwJzbW6da+hl5pzXVBi3yN8x2R61XXzA0faeL6Vm3v84jdSXYJE39aWxTtADLz8mvU+1OLAQAAAKDAxlLK9e5A0e5N3gwLIjOGqE2bci3aORP0fdn9DAruZJ42Rt/Z24lSSzWNXdHOYaLDmarva+S6WtsFZWIWH791Mzdcq9cd904ct6Kdo5cv+u54mvRP/XPuH+zKTsF63GGuOoDIzWqRjrkWAwAAAEAB1XBNagpVPamvVNvZLiDq96l/x6gWVJjFJ+5ZQZX3aViUDicx4utb+/tapcP9LApiJtfuXkmpbg33CvbEn/6MfrqSlp22QJa6VXmhhM3mur1T5P1Ow7cFe2KvX0i+2U4L5/riTudw8noBnMU1OzdzfVMTNyytpuqndBd61QFE44ke6rnQYgAAAAAosF2o8hAU7TZS4VHqRItzVkGV39Gm3It2jsdEbv6ugtB3+GMrg152iSnaOfoz+sok2uOPZ3HNJNsFJaiJ6z+ZIs8NyU9K0c6pYOL22VT3m1l8ROhFMyLvcVfDNVU7U+VnPOIv6z/+YN2FhSUAouX75B/SJl23Wg4AAAAABdbMDZdr87kgg0H6dvn3VunIaViY08x1uxB5brXeVLCn7Pm91LfHOXKF+5nkTRM3NOoLfIuGSX6Pv6+f1hw2R6560XIoEXpd+IxeFxZpWOwFKLLmrpFvUM/H50v3S7ZrVJF9e+GqhnqSnz2Fqh/1yOvS8/xDuhtFO4CICckcFO0AAAAAiscNk9XmqCCDt9IXwH3d4oOW5oC/pn9B0e5/vCqqdD+TvHCrxjZzw4/199eqadLf499bQeNvdYvHWA4lQK8rn0560c7Rk2u/8VR9e5jrZM6Fu2k8rUJP8FMraOtH9Q/g5tvaPvgEAKImJLfeTc9821IAAAAAKIKdqXJfbbYKMtgAM8nhFmfFjeLSf0yDpfA/dTP4qGqLI+OKdo1Ud76GkS8uUkTvGkup67IZlgjx08QNB3rEnRomumj3Fu/U/56bZ3PNNpaPKKfC3Syu+8ABtMO9Gl6g29YDOwEgL4Tkkdfpjc8skSX9tgsAAAAAisAj76MWwhA4x5/PLlTtFjNEYXRjW4yjSUdYHJnZVOuGxp4aZCVl/wra+grrIQsJ1czTd2KiazR0q7SWknemqHpxE9eMugZEVoW7U3j/yiaub60IJgR8T7AXAPLoeSY54gK56hXLAQAAAKB4DrIWhpbTz0efez9jIWyAiSP92eh7/df1n9loaSk6eheqcoucQAK52hNRxRUalmpHsfcyVf9qtOJy6MLdWVyz/STa4zY7uSObIw8AhvVCH8nHWqTrUcsBAAAAoLhyXnyhxO00g2uy6jHnsafvmHykpbABIToyqh5kjVz3UX2v/7GlJUv/G7/VyLWuFyckzETa43vaHBBkJeuwKVTl5pYcVqjC22yu27uaqt2y0B8I9gBAnj3pE314rnT+x3IAAAAAKCKb8D6jeYnK2XiqfK+FoTTS9H20wTRMw2CiSTtSaj9Ls+aOY68EJvrPkOdRquMsrplkOSRAI9cfoMd7KfcGfQs+u4nrhp0bNOPCXRPXfjBF3m0abhvsAYD8knt6qOfANul4yHYAAAAAQJFVE7/LQhiBn+XPSf93B1sIw0hRRc4/o7HkXapNORWgt6mm6vMshphzi6B6RBdrWC6jPJnJu7yZ6yZavp6MfgjN3LA/U+pGDTcN9gBAfsllK+i1D82T7mdsBwAAAADEABPvaiGMgImy+jl5xAdaCMPQn21OP6MmbqjTf8onLC0nDc3cEPniHhC999P2p+oxurel5WJbvQLOsXg9oxbu3Aoe2lyn2yYDOwAgb4RohTbTW6TzCwvk2jeCvQAAAAAQH+zej2AUTLyjhWG5obIwsqx/RjO4flMmmmtpOfpxsOABxNWZfNzmev34tqXl5uRmrtvX4jeNWLg7maeNIUr9RkM3jwMA5JEQXelTz7tbpMOtmgMAAAAAMcQk21sII9Bn2x0szNipXDNBm12CDEawYxPXbGZxKOOIZ2pTznM0vnNz2v2rFkMMjaHxZ7u5HC0tN57+f5vFbxqxcLcN7dCit6aNqn0AEB0h+Vua0h9plY4T26X7edsNAAAAALHEWa2WWm70xTv0z2k8VbrhtRlN51TmWCj1DoszNpNrt9Tfy+mWli2P+DvZFj4hv4LVqHmGpeXqkNncsN48lsNeFGdxnVs5ttx/YAD59Jc0+Ue108ID2mWhW/gFAAAAAOJvC2thZKF/TinyplgIo2CqCN0zsYK8r2njejWWuy2Yqk61GGJkHFW53pBlf4ymiM60cMCQhTuPPa+C+AIXBnsAICJu3rqOfuo/oEU6Dm6Xrht98SX4CAAAAAASAHN/Z2ZsDdfo+2fmfAxDDiPUUGS3SicTn2IpEJ9uQ7MhJmbwUdV6jLriMhAdfTZPf5vFQxfmZlPdp/VAxhBZgGj0CdFN+ijyeaGe7Vqk46Q5suhu+wwAAAAAkmWctTAy3pl6Q/2s9OW0nOdeC4VJQv2s3k/bulVktw0yUFtuSpVfshhiYDxNPFEbrK8QSFVS6iSLNy7cud52TPQdSwEgOy/q1kEkJwj1bNUqHUe0SNcvWqV7VfAxAAAAACQUVqTMUB9VhfxZMYYhZy7Uz8oj7wQLwQh5X3f1D0uh6LwvWACKiT9r4caFu1k03VU53x1kAJChtG53Csm3ferfv426tnU961qksxvFOgAAAICSUmEtjCJF/aF+VkK0qYUwijA/qxquqSLioywFw0RTZlPt4ZZCEc3mOrfYykFBBuY9zVw3MJfleoU7j/X/yGu0FABGNtCrTsg/sYd6tm6RjoNapfP/2mTR333x/eBvAQAAAIASo+/7kA/6g8Uw5AwxccY/q52p0hVEMJ/bEPTn+HULoYhSxG5YKK6tGxDyDnXteoW7Rpr+MW32DDIA2MCQvepapevKedK9IvhbAAAAAAAgG/qcjWHIGZIQQ7Y98j5kIWzsiLO4BouiFJHrQCbE0y2Ft2Cig127wVBZ/qIFABBArzoAAAAAgIJgDEPOmIT5WR1gLWwsVUXV9RZDEcyi2qnsOobCRoTk/a59s3A3i48YrxfKoy0FKFfoVQcAAAAAACVE9rIAhsAkb67eCYXnEbt1FmAITDzlFP7kuDcLdx5t7YbJYk4BKEfoVQcAAAAAACWniWs209f/7SyFIfHus7juA5ZAAdVwTUqbN1dPhY14E2mzd7xZuGOSQywEKHXoVQcAAAAAACUvTRU7WggjqCDvcxZCAU2hyo9qs02QwVCEaMe3FO4Y496hlD2v2y/Qqw4AAAAAAMpFBaXQ2y4zNWdxzViLoWAwTHY0TLTtQOHOuidi3DuUkg171W3fIh2fR686AAAAAAAoF/o+NMlCGNlmVVR1rMVQADP4qGoiPs5SGAbrOTxQuNuJUjtpoz80gERDrzoAAAAAAACjL/0TLIRRMYbLFtA4mnSENpsHGYxg/EDhjsl7+0AKkCzoVQcAAAAAADAsr8oCGAUTfexsnv42SyHP9OeNYbKZqRoo3HnEWw+kAPGHXnUAAAAAAACZwTtS5rwqSjVYDHl0KtdMIOKjLYURsW+LU/AmQQsQO+hVBwAAAAAAkAUhv8dCyIAQneSxx5ZCnkygyk9qMy7IYCRC0jNQuNMA89tBnKBXHQAAAAAAQM681RZABpj4HbPpxIMshTzxiE+wEEbFqwd73KEYAsXUr9tf0KsOAAAAAAAgOkL+SxZCxlJYpCKPzuKaSUR8mKUwCib/5cEed28M7AEonLf2qpvcIh0Ho1cdAAAAAABAlNLuvQtCYKLPnMKfxDDOPKmmyk9rg0VTMiREz1mPO39V0ALkDXrVAQAAAAAAFNCL9MJj2ui7P4Sw6ea06fEWQ+Q8rCYbgk/0qBXuPFThIR/Qqw4AAAAAAKBILpMl67R5OsggUx4xhsvmwVlcs702HwoyyEDf49T3hBXucCJDJNCrDgAAAAAAIF7+ZS1k7iPNPH0niyEi1VT5WW0G61Awuge7pbt34Ac2hxY+ow3muYNsoFcdAAAAAABAbMk/LYDMeUKpBoshMhgmG05w7g4U7nzx3Zj3h1wMMAr0qgMAAAAAAEiINMmdFkIITHySxx5bCjlq5oZdtdk/yCATQvxX177ZRVGIUIWH4aBXHQAAAAAAQAL10RuucIf3tvB2mUknYj626KC3XUhp6rvdtW8dW7zUWoA3e9WlifZto67t0KsOAAAAAAAgec6Vq1/VBu/7WUhRCotUROcEayEzz51D3f92wVsLd+g+W96G7FXXLh332lBqAAAAAAAASKbfWwvhfPpUrplgMWSpiRveq827ggwyI78frMW8Wbhrp677tXklyKAMoFcdAAAAAABAWUj/zgIIZ8KmVPlpiyFLjGGyoQnRm+fsm4U7m6tsSZBBiUKvOgAAAAAAgDLTIgv/oc3DQQbheBgumwNb4APDZMN57QV65iaL1xsqS0L+mx9ASUCvOgAAAAAAAND3fbnSQgjnQ81ct4vFENJMqj1Qmx2DDDIj11wmS9ZZsn7hrpf6FmuDnlfJhl51AAAAAAAAsJ409f5CG6wuGx4L8UkWQ0gpYvS2C0mILrNwwHqFu3nS/Yw2/woySAj0qgMAAAAAAIARzZHux7TB9FhZYOIGj7316icwumk8rUKbzwQZZOjhdlp4u8UDNjrwhASrzcQfetUBAAAAAABAKD75F1sI4ezUSCd+xGLI0AG0/TRtJgcZZOjSDes6Q1WMUbiLH/SqAwAAAAAAgJz8jZ51K1U+FWQQDhapCI+xmmw4vWuoxw1pX89GhbuV9OBftVkVZFBE1quOatbR61uhVx0AAAAAAADkYoks6ScS9LrLCh83g+s3tQRGcTJPG6PNsUEGmZFr5kv3S5a8aaPC3QJZ2qfNzUEGBTRMr7qOX50rV78a/C0AAAAAAAAA2VtDvZdq8+aKlZCx8eNIMF9bhrah7Y/UZrMgg8z4P7NgPUNOrijkY7hsYTynG3rVAQAAAAAAQEFYj55fBRmEwRguGwKGyYYhJI+00RW3WrqeIQt3vdS3WBsUjqK3Ya+67dGrDgAAAAAAAArJJ/8iCyGcg2Zz3TsshmE08rGbaPOJIINMMPElw3XgGrJwN0+6n9HmX0EGETlvNa3ZBr3qAAAAAAAAoJjapOtvQvI3SyFznCI+yWIY1oRP6V/GBjFkoLef1vzS4o0MWbhz9CTGcNmICNEfW6TjzAvkqldsFwAAAAAAAEDR6HvqhRZCKNzgsTdsLQVcoYlPsBAyoOfib+fIVS9aupGRDjYU7iLC+kuwEAAAAAAAAKDo1tIKN8/dsMUCGNbbZtGJH7MYNjCTa7fU5tAgg0wIyZCLUgwatnC3kh78qzarggxy4ZOsthAAAAAAAACg6ObLDT1EcomlEAIWqRheJXmfHmggU/+dQwuXWDykYQt3C2RpnzY3Bxnkgol2tRAAAAAAAAAgFnop/VNt3CKKEAITH9vENZtZCuvDarIhCMmwi1IMGnFctpCP4bIR0JP6EAsBAAAAAAAAYuEcWfSUNtcGGYQwlqmyxmIwjVy/AxF/0FIYXW+a3viFxcMasXDXS32LtcHKp7mbehbXTLIYAAAAAAAAIC6wSEVWMFx2Qx6RK2aOWGeC/xltUYpBI/5A50n3M9r8K8ggB6kqqjzMYgAAAAAAAIBYaJGOP2nzQJBBCB+YybW7WwwBDJMNYbRFKQaNWgnVfxCGy0aAyTvSQgAAAAAAAIAYkYssgBAqyDvJwrJ3Np+4GxHvaymMbtRFKQaNWrjzyXfDZSF3h3vsocsoAAAAAAAAxMpr1Nulzaogg0wxcX0N16QsLWtVVIneduFcOtqiFINGLSStoofvHGggV5Mbafo+FgMAAAAAAADEwoXS/bo2o06SDxvZfgpVH2pxuUPhLnO9/bTmcotHNWrhboEs7dPm5iCDXAgxhssCAAAAAABA7KTJd8Nl/SCDzEnZL1LRzLWuk9I7gwwycG0mi1IMymjoppCPee4iwCjcAQAAAAAAQAy1S9cj2vwhyCBz/MlmrptoSZny0NsuFD+jRSkGZVS466U+N89dRmNvYURTz+KaSRYDAAAAAAAAxIa+9F9oIWRujJB3gsVlJ5jLn8v2vz8sPceWt9GiWyzNSEaFu3nS/Yw2/woyyEGqiioPsxgAAAAAAAAgNtqpy422ezTIIHPlO1x2JtUdpM3bggxGw0SXZLooxaCMCneOkGC4bASYPAyXBQAAAAAAgNjxxff17f8nlkKGmPj9M7n+XZaWlRQJettlrnctpUMvApNx4c4n3w2XhdwdHnQlBQAAAAAAAIgbuUz/8kYQQ6Yqicqu1900nlZBxJ+xFEZ37Xmy8AWLM5ZxAWkVPXznQAO5mtxI092KKwAAAAAAAACx0iJdK7VZFGSQOa4LClnl4wDa4RBttgoyGF24RSkGZVy4WyBL+7S5OcggF4LVZQEAAAAAACCmsEhFVradSjscbnG5wGqyGbJFKZZYGkqoIZtCPua5iwCjcAcAAAAAAAAx1Sod92lze5BB5spnkYqzuGasNp8KMsjApcEckuGFKtz1Up+b5y7U6hcwpKl6kE+yGAAAAAAAACBW0OsuPCY++jQ+fgtLS1o1VX9cm02DDEbRt47Sl1scWqjC3TzpfkabfwUZ5CBVRZWHWQwAAAAAAAAQKytp2TVE8qylkJnqTWh8uQwfxTDZDAlJVotSDApVuDNYXTYCTB6GywIAAAAAAEAsuXnuheinlkLGSn+47Ayudz3tjgoyGI1kuSjFoNCFuzSlMc9dNA732MumcAoAAAAAAACQdz71uoJDb5BBZnjfJq5/jyUlaSzRsdqMCTIYiVuUYg5dcYulWQldOFpFD9850ECuJjfS9H0sBgAAAAAAAIiVdul+XpurggwyxyXd646JMUw2c1kvSjEodOHOdZfV5uYgg1wIVpcFAAAAAACAGMMiFeExUe0pvH+lpSVlFh+/tf73fcxSGFmfTz2/sDhrWQ3VFPIxXDYCjMIdAAAAAAAAxFirdNwpRPdaCpmZvDntUZLv+xU0/tMDDYzKLUphvVZzklXhrpf63AIVeu5CjqaexTWTLAYAAAAAAACIHSa5yELIkEf0eQtLDYbJZoiJLrEwJyySXf2tmRv+qc17gwyyJeSf2CpdV1oKAGXKrcw0jno376eqCSmSCZ5uPqUm6MV+jF4pKvRyXaEPTNq6zeF+jX0hz9e2X6/kvULyhkf8uk/yWorotX5a+/oTVPFqt3RjQmGIlRquSb2dKiZWEm/ar8d6auBYlwn60XghrhzumNfP3HGvG/frZ27qjjW67/U09ekx77/GVLm6jRa96rtTAwAydirXTBhHtJWeQ5vpfWRTvY/oeRmcj3quVenf4jZH7zWs9xR3PqZ7mbweIn91mvxXPb3fvE69r/6Efr2m1M9BfQ96QZutgwxG0k9rJs+Rq160dFRN3PAHffY51FIYgT733doqndMszbuzuGZsNVU/peEWwR7IQO8a6tlhvnS/ZHniNXHN25mqH9dQT1UYxaNt1PWOXOe3c3Ip3LVpMzvIIAcdLdJxksUAUGLO4NrJ1cQ7ariDXnJ30Dvc9kz8Ns0n67alPnbpxrq9+VIUNXeVX6n/3pc11k3cg8Mz+uL1jLZPav5kmnqfekLjbulOu/8BQLam8bSK/Wirt6Woyh3j7pjXhzvRmLfVfCvdttbjcUs9HjfXOKte/xno122Fbu5FUTd5SY/3p/QFR1825Gnd97RPax8P8yIJkHRuhEcFVb87Rf4UPR921vvQLrrb3ZvcubmNbq5wHhU7B+VZPffd8KCn9fx7Qs/9J/Tfu7yf0g/PlYXunpRYKNxlDoW7/Cl04c5p4vp2PY9nWQoZ8EnOaJPOH1uaeHr9m6nNnCCDkUlzi3S2WpKTrAt3s7n2wylK/clSyN4LbdS1XRRVWAAojqBYMXn3FFXspek79dK6m7a76YPnrtpu6v6eBOjRbbluD+uD4MN6o9HWv+9Fev6By2TJuoG/A8A08rGbMI17L5O3pxC/g0n0mB847nfWLSkTMb/qjnV9AXHH/CP6NPQfj/ifek9ejh57kGSuN4RQ5X56bO+v2/v0er6nnp/b2cdx8Yr+uf6t149/M/n/TJP398ep54Gk9BBH4S5zKNzlTzEKd7O4ZucKqn5Ew1SwB0Yn/2yRzn0sSTy9/rm5DkvmvyeP+tLU8/Yo5rdzsi7cuRVSJtEerufGZsEeyJ6/X4t03WMJAMSYK9LtT9vtmSI+QC+h++oVdG99wNSXIjektSS5nhMP6vZPn8Rdp+5aSyv+MV9ucIU+KANuGPd4kvcLee/Xh899mHhv3e166+Srx1yxrdbtPt3+qef3Uj2/70QxD+JMX6J21WfJaXqOflSP1w/rLteLLonW6jVmqZ5od+p15rbXqOcvF0r36/ZZrKBwlzkU7vKnGIU7R4//a7U5JsggM+n3tcjCf1iSWDO5dvdKSi2zFEZ2VYt0uEU8IpF14c7Rk/Y32hwfZJAtveh+Wy+6/2cpAMTILD5ifAVtfbCepx/WF4kDdNf+uo0f+LB8uaLdPXr1+qtP/GemnttapXtV8BEk3Vlcs30lVU3ziA7UxwTdBgrTpVqky5QbZn6Xtnf6RLf+jZ75+xJZ4oraAAV3Mk8bsxVtNy1FfJSeo7oNDHktRW4ey7v1/nuTT3J9u3S5+bVjAYW7zKFwlz/FKtw1cu2hHqX+YClk5vwW6ZhhcWI1cf339X3oO5bCiOTwFumM7DzJqXDXxHVfYPIutRSyd6eeyAdZDABF5CbN34Wqp+pD42F6wf2oXiZdsS5f88+VClfA+LveTZYI+Te/Sg/9ZYEsdS9ckABu2KtHEw7R0G36AsC7D3wAI3lNtz/5+tKkh/9NbXIFvn2GvJrBR1WPpc2PZErV6P3paN1Vjl8gPa735d/6RN1zaOHdxewFi8Jd5lC4y59iFe489riRav+D54VQXl5OPdsnfcE4vfY9pI2bGgVGFtmiFINyKty5b+VtZRm9vkIO0j3Us/U86XaTaQNAgbnV9CZQ5WEeee5lyPVecJPoQ/ZW6sPk77W9gbVtka6VwW6IC1sRzA1zcce8G1pX7fZDdvR4f0Qfha5jSt+wgh6+HYVriEoTNxyo19Ev6PHlRrhgepr/+a+ed78k6u1ole4nbV/BoHCXORTu8qdYhTunietPY+LzLYUM+OQf3yZdV1uaOM1cty+R93dLYUTRLUoxKKfCnaM3LjcPjJuQHXIg5J/YKl1XWgoAeeaGwKZoy6OZvBpNj9CtVOeoKzbXG+9mvcr9WrdrUMQrHlesI6r+rIaux85+wV6Imj5VrdCfrz6Yy6/vomeWYEgthOVWgK2mqs/rY/rJmr4r2AvDSOu59nshXtBOXb8v1GJvKNxlDoW7/Clm4S6Y/5bdSu2bBHsgA9e1SEdi5wZs5vpz9L50lqUwvEgXpRgUReGuTZvZQQY56NAT+SSLASAPbBisK9LV6UNhuQ41KqZefcz8g956Fj1PT1+D1Wrzr5nrJuoL7XQmPkFTNyWDHvpQQC/pMX+V/g46W6XjTtsHMKTZXPeOFHnf0PBzuk0Y2AlhPETkn/s8PduR7/sLCneZQ+Euf4pZuHOauP5Cfb74uqUwur61lH7bebLQXT8SxWPPa6S6JzTcIdgDwxGiq/WZL/J1IHKebDpNaTccCnJ3uDshLAaACDVz3S76IPijKVT9hD4MXq+bK2KgaFd4VUT8CW0XTaYdntEXnwtmc8P7go8gKm7umWaunaYP1As1e1Yfqi/U3R/UDUW7wttKf+yn6A/+jmauX6a/k1lncO1k+wxggLsO6j3qqhR5bgXvU3VD0S4779Rr3k+3oe2XN3L96WdxzVjbDwB5INR/0UADmaocS16dxYkyk048WBsU7TLi/8yCSOVcKFpFD7tvkLGaYO4mN9L0fSwGgBwFxYuGI/RlaLFm/9UX52bdvX3wKRSb/j4maXNqiuge/R3d08z1J7uVEoNPIRturkZ9Wf3GbKp9iCh1CxNP1934mcYG766/k/axlHqqiet/rduH7AMoU3qP2l+vfdfpdfDvek08TnfhC9xI8HYe8XnVVP2I3l++Mo2nVdgHABAhtzCTEC2xFDLCiRxh51HqRAthBHo+PNZOi/5oaaRyfkCwCZhvDjLIhRAfaSEAZOkU/uQ4fRE6JVjtin6vL0OHa6sNxJX+ct6nf/35NrTDk/qS9UO38JF9BBmYyfU76s9t7qZU/ZS+rM5n4nfYRxBPlfo7+rRutzVzw70oWpcf/b3vqudst4Z367XP9ULGPSo/ttcf7IIDaId7G7n+Y7YPACIklHa9+iFz72nk6YmaZ/gU3l+fWyjyoZ8l6tJ8zbUayTd7Qj6Gy0ZAH+JRuAPIkpskV1+EmifRZo/r2XSxbliiPnm20geDb1VT9WPNXP/zRm54p+2HIczk2t2bueGXlcSuR+nZumvz4BNIkH30WuWK1o/r9avRXcdsP5QgN+eknrPzNfy3nrNuoRhtoADe4xHfrOfYFWdyw7a2DwAi8Bj1X6eNm/sMMsSUcvOYJsZm9E435+SWQQYj6OshutziyEVSuOulvsXaYHx77qa6lcQsBoAM2IvQ98YTP65vQD/SXVsFn0CCVepjzcl6g/qPG1IYLD8Pg/Rn8h7XW6eSUv/WtEE3DANLvsl6/WrV69gT+rv94QyuwXWshLg5jPU+9UWNHtLULT5RNfABFJSeYyeMIfq33lMS9dIMEGfd0p0WogWWQgaY+IQZfFS1pbGXIg/DZDOg58F150rHc5ZGLpLC3Tzpfkab+4MMcpCqosrDLAaAEbghsa6Hil7Glmv6Xd0mDnwApcRzQwq1WaovvdfM4hP3tP1laRbX7Kw/h079mfzTeutEcg+HWNlcf7ffGk/Vj7oC3pl8HHpRJlwT1767keru0PAS3VCQLT59VvAu12vp9VgoBiAa/ZS+VJu8ruRcYrYYTxOPsTjW3PuWNp8MMhhZfhalGBTlQz+Gy0aAycNwWYARuEmmXc+FSbTZQ66Hiu5Cwa706a+aPlVBlfe5wtVsnj4l2F0eXO+rZq4/r4Kql2nqViNDwa70TXAFvDE0wRXwmmfxEVgFO2HcnEBNXP8tptQ9mh4Q7IUYOWospfSeUneI5QCQpbmy8GVtrgwyyIyXiJ6/E2kzNw/rJkEGI3g8X4tSDIrs4T9NaRTuonG4G1JhMQC8xWxuOPgA2sG9BLmeC1iSvPy4a2NdiiqWNXHDvFLvjVTDNSm3Sux4qn6EiE/XXYkZVgGRmchEP6qgrR52w/vwfJAMM7n+XZNoj7uZ+Iea4ryNr8l6W1nczA3fdivR2z4AyIJP/RdZCJk5vJGnb2dxbOmF8QQLYUSSt0UpBkX2ALiKHr5zoIFcTW6k6ftYDADKTSbtelqliG7TdK9gL5Qxt7rVmWNowiN6XHzNFbhsf8lo4toPTqHqe9wqsZpuFuyF8sX6cO9dPpvq7p7N9QfZTogZV/zRa9KplcR/1xTPcsng7h8/mE21v0LPVoDstckid927K8ggAymmlBtFEVv2BfnHgwxG0L+O+DKL8yaywt0CWdqnzc1BBrkQrC4LMMAm9P7aGKIHNXU3N3wjDm/lVri6aApV39vEDQcGu5LNFlu5XB/m/qzpe4O9AAG9AO6XIr7dfZExi4/f2nZDDJzGx2/RSHXXaniBbmMHdkJiuPlUU7T1nzDvHUD2fPIvtBAyoNedWA+XraIJx2qDXuOjy+uiFIMiHXIh5GO4bAT0JEbhDsrebK57RyPV3qqh63q/6cBOgKHtxUS3N3P9xa7wZfsSR//8+oDkuZVi3YMcitQwHHds1KVo/DI93r+M4bPF18jT99uExrtpHI4O9kASucL4WErdqefVLrYLAEJ4jPp+rc0LQQYZ2GMWT59qcezoNRGryWYmr4tSDIr0Ya+X+hZrI0EGOZh6FtdMshigrLhhj83cMDNF3n16y/iQ7QYYjd7P+BRtHmzm+hrblwiu51QT1+vDLl+t6bbBXoCR6QO1Pid4P22kuttncu3uthsKTO9XX/So4nYNdwz2QMLtomfX7W41YMsBIEPd0t0rwTzUkKEKSsWy153rfazPGR+1FIb3eBt1/cHivIq0cDdPup/R5v4ggxykqqjyMIsByoa+AO06harcPHZzdMNQI8jG1vrSdaUeS7+cwfWx76npetlV0Pj73TAt2wUQ1oGVlLpHj6VTLIcCsBXO3bBY95I6ZmAnlAjejim1xC0yYjsAIENC8lNt+oMMRscnnMzTYncPGUupz2hTEWQwvPwvSjGIRaLtIKcPMW3azA4yyEFHi3ScZDGUCDcHzgQaswdRyg3DcCsJbcEkk/Qs1As268VR9EbHa7V9Rfc9x0SP6ef3t9Gix/SiULK9Wd2E3o1U93UN3fUDk0NDVB7tJ79ujnT91fLYcBP+jqEJ7qU/1hMTQ+L8to/SX5orC1+2HPLAnb/VNOFXeo8+1HZBaXo+Tf0fbJdFyy1/k77vuOGAmGcyA/20ZvIcuepFS0fVxA1/wLmVGSG5tVU6p1kaG3p+/EobV/iBDAj5J7ZK15WWxoL+Du/QpiTmj86j/nVEby/E/HZO5IW72Vz74RSl/mQpZO+FNurarlAVXIie+/Zka9ruA0x8kD6ATNXTbW/dvUPwaTh6lq7Qf8YdPsnNHqV/1yKLHrePEm8G12w1jqp+ibkdIU/69cH2m+20cG5cit9uxVim1CIN3xbsAYjUM2mSmnbpdA/dELGZXL9jJbGb03mPYA+UMr1pPNZDdNCGL2Yo3GUOhbv8iWvhDvWAcPQ6c1OrdBxhadE18/SdiCoe1VBPRRjBNS3ScZzFeRf5hMar6OE7BxrI1eRGmr6PxZAQbp6hRq4/XR86Fm9DO6zwyFvCxD/U694n9OOsinaOXjXdnIdHe8Tz3YVUHxhv1e3EU3j/yuDvSCZ3Yx9PVf9E0Q7yqEKPr/ZGqruqiWs2s31F4RYR0GtDI1PKLbqCoh3ky/Yp4lv1WDvT9Wa2fRCBJq5/TyWxK4iiaFcm9ATauZrod7P4CIwGAMhQuyx00978K8hgNHqdOUTfH7N+T4yaUMUJ2uD5YXQFWZRiUOSFuwWytE+bm4MMciEoZsSee5CbzfWfaOaGC3RbXkmpZR7xeXqlO1w/ztccbe5C+hHdFk2iPf6r/94vugUdBj5JCPcyqS9A30pR6hb9z3FDhgHy7Vim6r/P4tq9LC+omVy75Wyqu1FP3lZNMWcI5FulHmvzZlPtr07lmgm2D3LgvmhiYrcIxfbBHigXei7tV0Fbd6EQDhCGf5EFMLqUR1RvcdHphc4V7mBkBVuUYlDkhTtHyHdDCCBH6IUUT4O96pq54SZ9kHslRXyd7j5VNzdvXaG9XbdLplD1P9xLRbAr3txLZCPVXR30RKREFRwh8XatoNQdjdxwjOUF0cQN762k1FJ9EHIFfYCC0evspzel6jvc8E7bBVlo4rrDU5Ryz7ZF7bULRfWp2VT7bYsBYBT99PJCbV4NMhgdfy4OXw7YojzvDTIYjpD8vNBTmuWlcNdLfYu1icVcQgk39SyucUMkoYiG61WnH7mVf6sH/qbie4++VLjhsz+N80qazVy3i75EuoUCPhXsASi4CXrju6aJ62dZnleNXP9pfQpzQ+t2CvYAFNxelcR3z+K6D1gOITRx3dFM3rUaYqXzMsfE323mevfsBwCjmCOL12hzeZBBBnabTcW/T1cQn2ghDK9fKH2ZxQWTl8LdPOl+Rpv7gwxykKqiSjwgFEHMetVlyn1L8+XxxPc08vT9gl3x0cT1H9JLzt803DPYA1A0nr6AtesL2M+n8bS8DVvV68e3PWK3shrmRoJim1xB3hI95msshww0cu2nmLyrNIzLl3RQXPrexJ1N3PBVjVHIBRjdT3TDQosZk89ZUEwo3I3u+jZZ9KzFBZOXwp3BcNkI6AMjhssWQEJ61WVqV48qbm/mujhc/Afoz/R4Jr5Jwy2CPQBxwCcfQNtfcwp/cpztiISbc7KJ692EtT/QrejDHgDMGD0cF+n12H0JBaPQn9MRHqWu1DDRi0BB5LbWi7orRmwSpAAwnBbp+K82biQeZEDflWqifiYNo5Hr3q/XtymWwjCEpKCLUgzKW+EuTWkU7qJxuFuJ0GKIUEJ71WVKX9C8y5u4/vuWF429JLpeR/pnAogb/sQk2uyPUU1L4B64plD1Nfrw9SXbBRAn7nnigiZu+CEm2h+e3rfcAlBX64aedgAAOUhjkYowNt2cNjnW4oLzyMOiFKN7op0Wus4oBZe3gtAqevjOgQZyNbmRpu9jMeTgf73q6i/Sh/LHEt6rLiNM/B397z2vWC9o+nP+njYX6IbiM8TZgdVUfdsZXDvZ8qy4+SUn0aZuhamjgz0A8aQ3hG81Uu1PULzbWDPXumeu3+mGoZAAADmaS4tcjzvX8w4y4JFXlBFTQUchwXQaoxCSSwu9KMWgvL1ML5ClfdrcHGSQC8Hqslkbulcdf00/KqOJ4vl0fUH7kSUF08z1Ldp8N8gAYm/PsZS6dTbXbGN5KGfycZuPI/qjnm8H2S6AmONTGqluAXr1/08zT9dng9QNGmIYJABABIIih++Gl0NmpjVxzdstLphZNP3D+lywnaUwtKIsSjEorw9rQj6Gy0aAUbjLWDn2qssMN+nPwxUsC0J//ue4f6elAEmxR4qqbj2TG7a1PCNumO0YGn+zXqvfb7sAkuLLs6nuZyjeEZ3Gx29BlHLPraHOfwAAGNk6esOtLutWmYXR6f24qsHigtFnWCxKMbqiLEoxKK8Par3U57rGSpBBDqZGNf9SKUKvuoz9eDY3HGxx3jRxw1z9+Z9lKUDC8O5jiG7NdNhsE9dsVkXVrqfdvrYLIFGY6AtWvCvbYbOn8P6Vm9D437jz33YBAEBEzpWrX9VmYZDBaJj4pELek2u4pkr/rcdbCsNIk3+JhUWR18LdPOl+Rpv7gwxykKqiStdjDBR61WWtMkW0KOhVkB/6O/mm3mXOthQgqd45llI3ueGvlg/JLUTBVH29HvPvs10AieSKd41UN8/SsjOR9pivjVuQAgAA8qCf0likInO7zqS6D1qcdztR1WH6HIBOQiN7wuZrLJpCDI3AcNkIMHllPVzW9apr4oYzm7nhj+hVl5MdNqHxbrGIyDVx/df1d/J/lgIk3XvH0Pjr3RcFlq/HfTs5kTb9jYYFe7ACyLMz9B77bYvLhj5bfFVfWL5qKQAA5MEcWfgvIvmzpTCKFEnBFqnwiDBMdnQ/L9aiFIPyXrhLUxqFu2gcXk5z0AzVq04frF1vgEN0Q6+63JzYxPWRFoL191TDxOdbClAi+KAUbfXraTytwnYMcMMXdqHqX2L+UShBP3CFLItL3iyePlWfLX5sKQAA5JVcaAGMij8z3JfHUQpGj/AxlsLQ+nuop2iLUgzKeyFoFT1850ADuZrcSNP3sbgkoVdd4egF+jw3p4+lOWnk+gP0n/gLDcumsAzlwxXnptIO6z1oNlLd9/Vl/wRLAUqKHtvnR/3lThy5aSMqqKJbw6pgDwAA5NNd9Ow12jwdZDCKTVK0dd7nnZtIm7ii3YQgg6HJDTYFXFHl/UV7gSzt0+bmIINcSIn17kCvuqJ650Ta42SLs9bM03fyiK/VcEywB6D06HXpK3qdGlhwpYkb6rT5losBSlQFE3frsf5ey0uO6zW7CY3/pYY7BnsAACDflsiSfiH5qaUwqvwPl9X7Pb6IHkWa5GcWFlWhesgUdSK/UuF6fliYWOhVFx9M9M1cet018rGb6Pvd9RpuHewBKGU855vc0KjnzaUuCfYBlKxN9CC/bjbXbGN5SZlNtadqc1SQAQBAoawLVubsDTIYib77f2QW1+xsaeSauW6i/luOsBSG9uTj1HeTxUVVkMJdD/W4ee4kyCAHU8/imkSt+IJedbH2tom0R43FobjeCkwT3Fj/dwd7AEqepzexFm1x3YJy8bYUVf8qqmkV4qKJa9+tL0PtlgIAQAGdJwtf0ObXQQaj4AqqbrA4cvpce5w2eK4d2aXd0p22uKgKUrizMcH3BxnkIFVFlYdZHFvoVZccTOR6HYTWSNNP1xefT1sKUC7Q0w7KzcGTaI+5FieeWw2ayevScGywBwAACs3HIhUZE6KTXIcJSyPmYTXZkcViUYpBhZxMHqvLRkAfOGM3XNb1qmvkhmOauf5i9KpLnKlh5zFq4toP6qUDvRUAAMrDjEauq7U40aZQdZM+Se1tKQAAFEGbdN4lRH+3FEag79Q7N1Ldhy2NzJncsK3+sz9iKQztxjgsSjGoYIW7NKVRuIvG4R57hSy4DmnDXnX6B7pWLy2n6EfoVZc8brL9jLi5EJhSV2hYUkOnAABgeB55C87mE3ezNJHcEFltmoMMAACKicm/yEIYVfSLVFSRfEabVJDBUIQoFotSDCpYAWgVPXynNq8FGeRgciNN38figkGvutKlv8fPZt4F23MrQe0QxAAAUCYmVFLlFW6oqeWJon/uFFPq5xom8s8PAFBqnqdnr9Tm5SCDkfGng0UBo+MRY5jsyJ58lHpitcBqwQp3C2RpnzZ/DDLIhRRodVn0qisbb59JdaMWgxu5/iRt3LczAABQZpjofVOoyi3Qkji7UPWXtZkaZAAAUGyXyZJ1QuJW6ofRjSfaJLK5xZu5bhdtcE8cgR6bP4/LohSDCj3kMlZVy6TiPBXu0KuufHkkH7dwSDO5fkeP+HxLAQCgLPGZ+sDvngkSYybXbqnN/wUZAADERT/RAm1iVRyJK31Xi2y4rJB3gjYZjrYqS/1CFJtFKQYVtHDnk7jCnf4cIEdTz+KaSRbnBL3qwGHij1k4pEpid2PdNMgAAKBM6YO+d0nUQ3byqZJSrfqHjuSZCQAAojNXOp/Q5rogg5HxwbN5+hRLcqL3RFe4g+Hd2CadT1scGwUt3NkP4P4ggxykqqjyMItDQa86GMbU4eYustUEjwgyAAAoczsxTWi1ONZmc51bQfbkIAMAgLjxSS60EEbGKapw0xblZBafuKc27wkyGErcFqUYVOihsg5Wl40Ak5fxcNmZXP+uJm44G73qYARjp1D1ey1+kxti5JF3nqUAAACul/ZXm7j+Q5bGlt6/5gw0AAAQS3No4RJtlgUZjKLBYy+ne1qKKrEoxchityjFoII/zKQpjcJdNI6ZwfVDDl3cuFcd/5uJ5upH6FUHwxIS1zNhPZXktWuzVZABAAAM8Jj4Z3FeZbaJ6w7XZ59DLQUAgBjyxRd9B7nIUhjZjrOo9qMWh+axxxgmO7I4LkoxqOCFu1X08J3avBZkkIPNxxN3ncG1k91J2MS170avOsiFvoS928IBeiztr3sjmwgVAABKyjt3oeozLY6V4OWE2ywFAIAYE3q9QxvUBzLg5fBuNotq3UqybkVZGFosF6UYVPDC3QJZ2qc/kJsthdwcPZZSzzVS3Tqm1APoVQc5evNC7l56tJnvwoEdAAAAG9AbxbeauObtlsZGI9V+Sv90G/UiBwCA+GmTa1Zr44p3MLrjhht1NxqPGL3tRvb7OC5KMagoL+X6oIfhstFxBZbYDlWBJJG3WeC+kanT5gNBBgAAMKTx+gjiFriKjeCLJ/6upQAAkAB9lHbDZSXIYATjxhN/1uKM1XBNSpvQ/7tykiaJ5aIUg4pSuPNJ3IR/ODEBYoUH5rI7maeN8Yh/NLALAABgBEz86dnccLClRTeLph+rzUaLLQEAQHzNlYUPYlRepiT0cNmdqeoj2mwbZDCEpx6n3lh3LitK4c66IN4fZAAQE+PdX7ah7b6qzZu97wAAAEaSIppjUywUHRPPthAAABJEiC60EEbEB57NJ+5mSUb03ojVZEcW20UpBhVz/ioMlwWIl6pgzgSv2XIAAIBMHDCLao+3uGiauP5D+nLyfksBACBBHqOeG7R5PMhgBFxJlSdZPCq3AjwTHWcpbCzdS/2xXZRiUNEKd2lKo3AHEC/944ndCoFbBikAAEBm9KWg5RTev9LSomDisy0EAICEcT2ehORiS2EEes9tsHnrRrUzVR+hzcQggyHceI4sesri2Cpa4W4VPXynNlj2GSA+3tBtRhACAABkjonfsTnt4RY2KgobNvSJIAMAgCR6nd74uTZrgwxGsMMUqvqYxSNiIgyTHUHcF6UYVLTC3QJZ2ocJKAFiZ3NrAQAAQtGHyuZpPK3C0oKqospTtInFPHsAAJCdC+SqV4ToSkthRDzqIhWncs0EvTEebSlsLPaLUgwq5hx37ukKw2UB4mOStQAAANnYdSrtMN3igjmLa8ZqE3qVPQAAiB8fi1Rk6lNn8nEjdrrYhKqO0WZgAUIY0mVxX5RiUFELdz7JYm0kyACgyKqsBQAAyAoTfTPTeXeiUknVJ2iD+XsAAEpAu3Tcq42bVgtGNnYMjXf3v2FhmOyI3KIUbmh2IhS1cNcmnU9rc3+QAQAAAEDC7TYl+Ia/YDySL1gIAAAlQEgushBGNPxw2bO4ZpJ+fpilsBH5fRIWpRhU1MKdwXBZAICNuYl5nxSiv+vDy+91+41ui3TfL3Rzk6j+wuYA+a1uf9Cbzz91e1bjXt0AkuhV3R7W7S+6XeeOeW27dLvUto7gmJdrNf6Tbv/R7WXdfN0gVvgMC/KumRt21X/fgZZCfPXo9rhud+l24xDnd5ft08/o79q6L/f7dAOAMvQo9brrwfNBBiOY2sgn7mHxeqqo6viBBoak95xELEoxiEWKO1J1Ntd+OEUp9wAOAFCO3MvMPbrdrdt/hNIP9hM9OFcWuoJEaB57PItO2JYptSsT76lX+D311rSvxnvrx7h5Qxy8osfkX/UR5B4h/0Ffj/dVtPrhBXKtW9k6tFN4/8oJtOvOlVT5Dv3nvlt3vVe3/d0qpwN/AxTL+1ukY6nFedPE9d/X3/V3LIXic4vP3afnot7T5B96V1rWT+mHs7mnufvZ6VS3TRX5u+v14r0e0fu0PUg/2iX4OyAJ+mnN5Dly1YuWjqqJG/7ARIdaCiMQkltbpXOapSUH1/fM6HEwR4+D2Za+SX9+S/Tn91FLYX1PL6eenZIyv51T9MKde+CeRHu4m/mmwR4AgNKmV9179a/X6yX4pjfolXvmyw2ueJdXp/Anx02iTQ4U8o7U9JP6UDwl+AQg79bp8X6zEF+vL/C3zaMrHvLFz/vDx5ncsK2+8E/zyDtK04/rttnAB1AoV7RIR94XqtCX/Ef1erazpVAcT+jmen8vXkGr/pxtET5TZ/P0t1WSdxiT54ZkH65b9cAHEEso3OVPqRfuGnn6dh5VuJ66lcEeGJo8u5x63/7WIpT97Nww0DiMsIyj7+szyvcsToSiF+4cvUBfpRfo4ywFACg5eqVdrn/9hU/pK9plkcbF1cx1++otoC7YaMtgL0Bk3MPFbb4e82uJrpkvna8Fu4tjBh9VPZY2P9Kj1EmafkK3ioEPIJ9611L67efJwhcsj9xsrts7Rd4/LIXCWqMn+ZVE6V+00xV3FKIYPxS9l00U8k7Q94ivaOp620LMoHCXP6VeuHP0eOjW4+GzlsIw0uQf1S5dN1pKjVx/ukd8nqWwPrcoxc5Jmt/OiUUFVk9GzHMHAKXqTn2w+lQ7de2mD1f/F4eindMiXfe0SOcZK2jVjvro91Xd9WjwCUBO3DC5y/upb68W6fhom3T+sthFO8f1am2Thb/VP9OxQj1T9M94ru5eE3wKeVI1hjxXKM0bfSlxRVgoKHlWz5+Zeh5t3yodX2yVhX8pVtHO0XvZSv1zXKzntpsOwg0J+8PABwBQEnyiCy2EEaTIW2+RCsZqsiNI1qIUg2JRuPNJFmtTtJs+AED05B6f0ofpy8RBrdJ5rb7YxHICfTekqUU6F9xFT79TSL7sXsrsI4Aw3PHdQdS/m75EnzxHrngg2B0/rdL9pP4Zz+qnNW6erPN1w4IuecLEX3LzlFmaD0dbC/n3qivY9VDvrnr+nKPn0SrbHxt6v/2TboenKf0R/bO6BS4AIOHapeN2be4LMhjBMcEqsq43+vQpev/df2AvbETfdxK1KMWgWBTu2qTTrRx1f5ABACTaSiL/K2208P1tsvCPti/2lsiS/lbpvMSn13fXdL5uWKkTMvWPfuo/UF+YT2qRRW4umkRwQ7f0zzyjj2QfTd2LAURv10Y6MS8TY5/BtZPxYlIwHf205p2uYDdPut2K57HWLgtva6euqUL0NU2L3uMXAHIjJBdZCMOrrqKqgV52HqVcm88vzZLs6bvp2USO9ozTZIUYLgsASbe4h3re0yJdP4trD7vRtMk1q1uk43Sh9Ic1TUwRBoqiXx+mv7uClk2dI4vcqsiJNFc6/9NGXa6Hzlma5n2hmPKTOtmCSI2hlJsDCy8m+fWcbke6onyYOcriwN2D3RDaXurfU9Pbgr0AkEQr6bWFAw2Mgj83m2u2YWIMkx2GPrde5jorWJoosSncpSmNwh0AJJVbxalRX/4/Pk+6nwl2JZubt0hffd6n4Q3BHoD1PCeU/mirdP5ggSzts32JZS/5bt67g3VL3LwnMfepWXzEeIsjwySHWQj5cfMa6nlvi3S46WwSy81jtJx6PiZELZpqAwBJE6xULZdZCsNgov1SVO2+cHlXsAc2oO9rvT+3OHFiU7hbRQ/fqQ26swMUBh5eo+OuW5/Ql5v2Yk7QnQ9u0m994fmkHi4/tl0A7uJxbw/17B8Ud0uLnsdL1xFN1f/Ke2wX5G58irbS60h0gnnzGKtO5s/5eu0/Yr50v2R5onVLd7pVOr6p57XrhaKnOAAkj/xE/4JpXCAXi908xxYnTmwKd+4be30ZuNlSAMgvDC+Kxgtp8j+c9B4JI3EvPG71WX1garZdUMb0Pv1HodUfKZWepUM5Vzqe8+n1jwrJrbYLcsTEtRZGYjad6HoTbBNkECHRc3ym3tNmuGu/7SsZei/r1uZI3VYP7ACAxGiRrke1wQg9yJpPlMhFKQbFaY47V0nAyQiQf29YC7l53qe+j7ZL1z8tL2n6wtOqL3RNlkIZEpLfv0BPH+PmQbRdJcv9N66k1z6h4Z+CPZCjQ2dy7ZYWR8D7iAUQHb3Ey9fcAhSWl6QW6fiTHwyzxigfgOS50FqAsJ75Gz19o8WJFKvCnd5IXa8VfXAAgHxh4jUWQvZWij74t8kVyywvC/pC16aX6HmWQnm5rZd6j79MlpTNMDM3p45Qz6c0vC/YAzmorCCObLis3sfc4jkQIX34PqNFOhdYWtLapPMuvYcfrSGGzQIkSBt1/UHP3UcsBciYHjc/T+qiFINiVbjTG+nT2twfZAAQNX3ZuVEvXFtZCtnp1e24Vuksy2tVGy2cpc3vggzKxDIi/9h50r3W8rLRKt2reqnfveC/EOyBbDF5x1qYk2B+O0LhLkL6XDCnVTrmW1oW9B7+Z23qdMOcWQAJ4RaSEiI31x1AGIlelGJQrAp3BsNlAfLjPn04R2E8ZzLDDbWxpOy4h6Y1JPUa/jfYAyVuVZr8T7qFSiwvO25VyjSlazQsuTm/CuyQGVy/qcVZm0nTd9Vm6yCDCPyunRaW5TQIei+/Sp+Lvm8pACQAU+/l2rweZAAZSfSiFIPiWLgr2UneAYroKZ/EzdfkJmWGrElnuQwlGsl86XyNyD9Bw75gD5Qu+Xy7dJX9sJR2WXibNv8XZJCl6vEkh1ucNSY+0ELI3X+FehrcFzKWl512WujO60TPewRQTlxPeH026bIUYFRCcomFiRa7wt0KWnaHNpgwFiA6T6XJ/1g/pd3wovcEuyALj/r0+tctLnst0nWPa4IMSpEQ/bRFOq+xtOzp88mP9Gdyr6WQFe/jFmSNiT9gIeSm130BE7wEly9XtOyj9EkaPhfsAYC466f+iywEGM0zd9MzN1icaLEr3C2QpX36YHyzpQCQE3lQb28fcj1mKqnCvTC54h2Ep5cl+kI5rKYZxnLqcYW7slqgo4w8LrR6psWg3PMJk/9lDTFkNntHeuzl9OypNzEU7iIhP7AvYMreXFn4st7kv2QpAMTcHLniAW2w6jtk4rKkL0oxKI5DZd1DGea5A8iRPoTe1EO9B7XIosddrudVzj0dypWQXFrO89oNp1u6XY+Nb1gKJUSP+a+hUL0xV+jQa+vPLIXwJjdS3b4Wh3YKf3KcNu8KMsjBv5dT71yLQbVKh+uR8esgA4AEuNBagOGk+0gSvyjFoFgW7nwSN8+d6+ECAOH16enzrXbq+vg86V7hdkzjaRXafMTFENorr9MbZTlxdyZapOtmPd6utxRKgN58r26VTnyBNox+Sn9HG0zpkSU9vg61MLSJtNne2rj7GWRP0kRfDb54gbfyqf90bXBuAyTAXfT0tdo8FWQAQ7pprnQ+YXHixbJw1yadT2uD1S8BQpN7iNJTW6TzR2+dbHp/2n6qNjmv5leO9CXzhxfIVa9YCkMQ4m9pU7aTm5eYXn15nWUxDMENq9Pm3CCD8OQQC7IgWffWg0HS0S4dt1sCb9Emi57Vez5WmQVIgGD4o/zUUoCNCElJjZCIZeHO4Nt+gMy9oA+bX1tOvVNbZOE/bN+bUsQ5vCiVtccfpZ6LLYZhtErHfdq4bz4h+X7WLouWWwzDWEevz9cGPXOy4FaFtSGvoTERCne56ekj+q7FMIQ36BU36f2TQQYAcdZPb7jVQnuCDOCt5NlSWZRiUJwLd264LACMzE2o/E2fVr+jVTou7pbuYSZNl2kWQAhC/v9hOFFmfJI5FkJyrVuHlYIzcq5c/Sq+6c9a9eY04SCLw3qvtZAVubiUhg3lw3y5oUd/Tuh1B5AAc+SqF/V8/ZWlAG/BPy+VRSkGxbZwt4KW3aENvs0GGNq/9Ub11RW0asdW6WgZaRL5k3naGL14vd9SyJg8+yj1dVoCo2iTzruE6O+WQjJ1nCsdz1kMo+inXtcbF0PEs8CU+pCFGTuF96/U/+UelkJ4a9ZQLwrzGVhOvb/U5qEgA4A466e06yUL8FZ+KS1KMSi2hbsFsrRPXwJvthQAgt51F/skH2iRjj1bpHPBArn2DftsWJNpe1e0GxNkkDk+H73twvIXWADJow856fMshgzMke7HtMHogCwwSejC3UTabTdtqoMMsnD5fOl+yWIYQTB6wcc8lgAJMEcW3a3N0iADIDe3XUktSjEozkNl3VwmmOcOyt1/9fLzY6L0x1bQsu1apeNrrmeTfZYRPY8OthAyt3odvY5hcCGl6eUrtXk1yCBhrp8rCx+0GDIkKFZnid8/g48KVYRjSu1lIYSXTlO/PktApnqCHvcodAIkgBBdaCGAezYrqUUpBsW6cOeTuG+y9VwEKBtrdVusx/4Mbd/RIh26dZ7RIguXuF6oA39HaHygBZC5K4I5rCCMObJ4jV6wr7IUEkQfcn5iIYRwNz3rvmDEy314Y6pp4vsszoheW95lIYT3Oyw6E8486V4rJFicCiABXqCn3Tx3uBeDkmf/Rs9db0lJiXXhrk06n9bm/iADKFn/1e3CNPlH9VDPFi3ScaQe++dr6/bnxGOPtZkaZJCpfuq/zEIIzf+1BZAcT7XToj9aDCHYxMfXBBmEUUF0gIUZkt0tgNBQmM9GL/W6XhvDLPoFAHFxmSxZp/eISy2FMibEl5XaohSDYl24cyTodQdQSoboVddxWrt03ei+4R34OyJyJtW8Q5stggwy9G+bLwOysJIeWiJufSFIDP19/dIXH4ssZA3F6mwIeaEKd0yMwl12nmijRUsshhD0mewZbW4KMgCIM6FeN3UFCu3lze8v4QJu7At3+qCGee6gFLjec+frdmTUvepGUkEV6G0XkpB0WAhZsCHd1wYZJAETuRUUIUt30bN/0uaVIINM6XGX8f2phmtS2rgvoiAkvaehMJ8Dn+RyCwEgxlql+0nB82dZK9VFKQbFvnC3gpbdoc1rQQaQGEP1qpuh2+Koe9WNRE/wUHMIgRsmSyU5L0IhMfn4wiUx5MF8f4FQ6tyQDH1ZwFDj8HacybVbWjyiKVS5ozZYUTYLTILCfA4eo97fabMyyAAgzpjSF1kIZahUF6UYFPvCneu9oQ/EN1sKEGdF6VU3Mt7XAsjMU3Ol8z8WQ5Z6qO8WbTBcIREYw8AiwCQo3GWhkryMvlzySaZYCOH8u0W6HrUYstAt3b3a4D0EIAHa6Ipbtfl3kEF5Kd1FKQbFvnDnMBF6b0AcxaJX3XA89tz5vXeQQWbEDXmDHOnxv0JI7rEUYsynNI75CPhEf7AQQhDijAp3Hnko3GUHx2U08HMESABffBEi9LorT5eX6qIUgxJRuPODBSr0PAQouhj2qhvaTJruXnQ2CTLIhF5kbrcQcsbooRB/kib6i8WQg2AVfHnQUsgQk2T05ZIQo3CXBZ8IhfkICPWgcAeQEKupp1ObVUEGZUJvd+mSX1U4EYW74IGY7g8ygIKKda+6kTDReyyEDKXJx2qyEfHJd/OTQrwtnysLX7YYciTEOOZD40zvU7tYC5mTPupBYT4CbtJ7bR4OMgCIswul+3VtMLdneflDiyx63OKSlYjCnSNBrzuAQkhMr7qRMPGeFkJm1jxB/ZgXIyL91HeXNugpHWN6X/2bhRAJ/68WQOZ2m8FHjbroBJO4xSkgnIfdtAUWQ470ZobCPEBC9FKfGy6LZ9CyISW9KMWgxBTumBjz3EG+uJ5zN+p2mm6J6lU3CvS4C+f+bunGggoRCV4Y5SFLIYb0vvpPCyEC/cQo3IVXMY622N3iEfDbLYDMLbUWIiE4vwES4hy54mHB3JTl4rm76JnrLC5piSncraBl7puu14IMIGcb9qo7SrcLdUtUr7qR6Ev5uyyEDOgN/j4LISKCQkbMCY75CM2jhW6Ou5VBBpliohHvVafwJ8dps2WQQab0nvYPCyECaerH/QwgUXwsUlEW5LJSX5RiUGIKdwtkaZ8+hGCyc8hWqfaqG9I0nlahDSbzDmeZtRARfSG/10KIoV5K45iPkC++LyToxRjeO60d0ua02du00csJhKHHIgrzETqHuv+jDSa8B0iIR6nvRiF6zFIoTWWxKMWgxBTuHH1qw3BZCKPke9UNZ3/abmdtRp03CP7HJ/8RCyEi+uL4Lwshft44l650Cz9BhJgYx3xoMuJQWY/S21sIoaAwHyVXmNcGvRgBEsKmv/lJkEGJKotFKQYlqnDnBwtUSJABbKSsetWNjEfswQBDQuEuYkyC1cDja7m+iOJ+GjEhH8d8eCPer3zibS2EzL0+h658zmKIDgrzAAnSSz2XafNGkEHpKY9FKQYlqnDXJp2ud8ADQQYwoGx71Y2EiXa1EDLTt4oeKptvbAqlRbrcfF9PBRnEiaBQnRdMHl7sQ+MRp3XwyNvOQsjcIyjMR0/Ix/kNkCBuoTS9EF5hKZSW51bQg9dbXBYSVbhzhATDZcvbm73q0tS/a0tZ96obHhPtYiFkQK8rj7t5NC2FaKEHUgzpNQKFuzxYQav+rY0bUgeZ22QWH7+1xUNBj7uQUJjPDxTmAZKHKY1FKkqQ3ucuL7d3t8QV7pgYhbvy87Cenj/Wdr1ede2yaHnwMWxIzxMU7sLBXF95I3r+QgzhmM+DBXKtG5KDn21IHo0b9p6lD+co3IXEJCjc5QEK8wDJ0yIL/6F3kjsshdLgp6mnbBalGJS4wt0KWuZOvNeCDErUhr3q3tkinWegV10oKNyFwMTPWAiRYxTYY0lwzOeJkOCYD2mUXuJbWQuZQ/E4D1CYB0gmvS9faCGUACH64xzpLrsVgxNXuHNdIvWXdbOlUDrQqy5ab7cWMqA39GcthOiV9XyTcdVPaRzz+YNjPiQm2tHCjehnKNyFpPc0FObzB+c3QMKspIeu0gYL9pQIIb+sFqUYlLjCnaMPcRgum3zoVZcnp/HxW2gzPsggE0KEl5w8SZOP4nsMeZTCMZ8njF6moQnx2ywcCgp3Ifnk4fzOHxTuABLG5kL7aZBBwj33Kj10ncVlJZGFO59ksTb6rg0Jg151BTCOxo70AgRDQ++jPLHVevuDDGLC/xs987zFED282IfEJEPetzz2WJstgwwy1UtpFO7yB+c3QAKtI3K9tLAQXcJJGS5KMSiRhbs26XTzSzwQZBBj6FVXBHpSo3AXkpD/koUQMbu5okgULyuXyBIUU/PEJ/8pCyFjQ/e4m02f2VSbyiCDDPXNpytwT8sbQeEOIIHOlY7nhMgNmYXkKstFKQYlsnDnCAmGy8YTetUVnbedBZAhj7wVFkIeYA7BeNHfB473vGIc7+ENed9iSk20EDL3ii8+Vj7NE5/SKMwDJJSPRSoSTcp0UYpBiS3cMTEKd/Hwhp5G12uLXnUxwUTbWAgZ6qVeFDLyCKv2xov+PnC855ENQ04HGWRoi1N4/yF61jEKd+Hh/M4vFOYBEqpdOu/Q5h9BBkmj77iXWFiWElu4W0HL3In3WpBBgb21V92WLdJ5NHrVxYmgcBceXnTyCD3u4gU97vLLhiG/GGSQIW9z2n2yxW/yiTe3EDL3irWQB49R+gVtMNUAQEIJ+RdZCMny/Apa9juLy1JiC3du3iQhutlSyC/0qkuWba2FzKzFcZxvGDoYJ+hxVwgoVoeXHupLJ/S4Cw2F+Xzqlm7XmxbztgIk1EpafYXgC/sEkrJdlGJQYgt3DhNhuGz+oFddcmEFvlBkpQWQJ/qA9JyFEA845vMOxeqwPKrY6N6lD6lucQoIQVCYLwRM/wCQUAvk2jeY5OeWQjL4encr20UpBiW6cOeTLNZG3wkhIq/pD/Ob6FWXdIzCXSi82gLIHwzdihXBMZ936PUUlj5/bHTvEuJNLITMoTCfd4IedwAJ1k+9F2uDuWiT4+YW6XrU4rKV6MJdm3Q+rc0DQQa5EpKjW6WjBb3qEg+FuxD0ZXGNhZAnTGkUMeIFx3zeoddTWPoMMsS9C4W78OR1CyB/8GUUQILZyqQ3BhkkwM+sLWuJLtw5+qCH4bLReKZVOv9sMSRUDdektMGcQCEwihh5108eihgx4uOYzzssABIeE29h4ZuYZIKFkDmc3/mHwh1A4smFFkC8lf2iFIMSX7jTBz0U7qIxwWMv8cdDuZtClW4+IPwew8FLTp551IsiRoygWJ1/WAAkGzLEl07ocReWHnvocZdnmEcQIPnaaOEftXk4yCC+sCjFoMS/4K+gZXdo81qQQQ42m0l1e1sMieVvZgFkDkWMPHscq3fFDY75PBPyccyHxMRD3L9knAWQISFC4S7PGOc3QOL5ov9HcpGlEE9YlOItEl+4cxVYfUi52VLIQYrkSAshoYQqULgLD0WMPOuW7l5t8HOOD/wu8g8LBIQ3xP2Lx1oAGUKP2kLwMFQWoASsJfqFNviyI6aE6BYsSvE/JTGkTh9SMFw2GijcJZ6gcBfeOmshv/BgFBuCYz7PfMJwxfCGvH+hcBeSkLxhIeSJT/KqhQCQYPOl8zUh6rQUYkbvZ1iU4i1KonCnN9DF2uh5B7nhqc1ch4UNEg3zAYWlNwXMm1AAeoHGy2RMMI75AhD0egpt4/uXXjdQuAuJye+xEPIH5zdAyUi74bKoI8TPC6/Sg9daDKokCndt0vm0Ng8EGeSgQh/5DrMYEkgf2DEfUEhM7IZxQp5h+FZ86NMpjvk8S1MaherwNrp/6XVjjIWQIZzf+eeTj/MboES0ysJ/a3NrkEFcCBal2EhJFO4c/eViuGw0MFw22cZbC5nDS04BYPhWfAiK1XlXQRU43sMb6v5VbS1kCOd3/jF61AKUGLnQAogH36c0FqXYQMkU7pgYhbtI8OEee2wJJIw+sKNwFx5ecgpAr9EoZMQEeuTkXx/14ngPb6P7lx6rVRZChnB+F0IahTuAErKcen+nzZNBBsWm97Fb2mXRckvBlEzhbgUtu0Ob14IMcrDNTKrbx2JIGAwrCk9I8JJTGChkxISPHjl5t5JewvEe3kb3L72nVVoIGcL5nX/rqArnN0AJ6ZbutL4RLLAUikzfzbAoxRBKpnDnxkAL0c2WQg5SJBgum1BCjGFFITEx5k8ojLXWQpF5WJwi7y6TJW7lXj/IIEND3L8EhbuQKlG4y7vnqRc97gBKzBrqdUMzsep+8WFRimGUTOHOYSIMl40GCncJpecAhhWFh5frgpB+C6DofBzzhZG2FjLjTeNpFRYPEGIU7kLqpx4cd3kW9M7BswNAKZkv3S9p86sgg2LBohTDK6nCnU+yWBsJMsgeT23muomWQKIICnehCR6+C0AvzHiZjAmhNI75wsAxH9JutMl69zAeWO0ewhCqwvldGDi/AUoPFqkoLn0pw6IUwympwl2bdD6tzQNBBjnQB2U+zGJIFhTuQkPhrhD0BRwvOTGBF/uCwTEf0jhKbXgPK6nn1EKooF58gV0Y6EUOUGJapGOpNncHGRQBFqUYQck9EAkJhstGA8NlE4nxkhOST4yXnAIQYrzkxARe7AsGx3xITJUb3sNwTwsJhfmCQWEeoAT5JBdZCAXnY1GKEZTcAxETo3AXCT7cY48tgeTAS054Zf2ScwrvX9nI07dr5oZd3TaDa7bKx7mPHnfxUW4v9oU6xjeE4eHheVSxwT1M8BwSGobCFwjOb4AStJZWuHnuXgwyKKAXllMfFqUYQcm95K+gZXdo81qQQQ62mUl1+1gMCSEkKNyF5BGX1UvO2Xzibo1cf3oTN1zVzA3LJ9Ee6/Rl+Rn96BG3jafqFxupbq1+dp/+PZc1c93nzuDayQP/4xygiBEnpf1iP3iM6zH8m0Ie4xtCsTo8Jv1VrQe9yMPCHJYFgx61ACVovtzQo1fSSyyFwvlFt3RjVfQRlNwDkVuFRF8Qb7YUcpAiwXDZ5MFLTkhCUvLDBk/hT45r4oavNnP9P6qo8iGP+DwmOk4/2kW3oY6Zat320r/n8/rx5WMp9UwzN/y+kRuO8djL6hhjEhQxYqKXKkrumHfHuB7fp7z1GNfdx+tWsGN8CDjmQ+KNety5+ieEUYrnd0zh/AYoUb2U/qk2KM4Xjr4k9KNYOoqoHk5jZmB1WcgdCncJw5ivLTT9mZXsi2EwRLD+9Em02eP6H/kT/a/d2z4KK6XbEXrDuLaR6u5zxY1gdygler9JnirqL5lj/i3H+GN6fF8c0TH+ryau/2SwOyc45kMaouiEe1pIpXR+x5y7ZgBACTpHFj2lDYZtFg4WpchAST5U6lOem+cOD3s546nNXDfREkgGfAMckl+iw4tnc/1Bk2j3f1nPo62CvZHY0xU3mrnhhkau38H2ZYArLICiS5XEMT+L6z4wifa4z47xrYO9kXg3E/+2ietvPJunv832haYPITjmQ9If2Ab3MKz6HRaXyPmdACjcAZS2C62FvMOiFJkoyZt7m3Q+rc0DQQY50GdoPsxiSAa85IRXUtfBGq5JNXPD91LEt+n5u7vtzoePe8T3N3P9sZaPSPCSExtMvYk+5geP8Qrybtd0j2Bv9Jj4yCqq+Jf+u9yQ29AYx3xoPvVvcA9DL/LwULgrEBTmAUpYi3T8SRvUE/LvRSxKkZmSvbkLCVaXjQQfYQEkAnonhOWV0KqFjXzsJlOo+ncafle3QhQNNtdrxFVNXP/90VbpZBK85MREP1Ul9pi3Y9w94BXwGKdfN3HDD7NYiRaFu5CE+ja8h+GeFlLSC/MJgvMboOTJRRZAnggJFqXIUMne3JkYhbtoHJHFywoUDy58oZXGqoUzuXZLjybcquHHgz0Fw3q9/c5sqvu56wll+zaCHnfxkdQX+9P4+C082uQWDY8K9hSMmwjzW41Ud9lIx/gQUKwO6Q1Kb3gPQ+EupCQX5hMG5zdAiXuNeru0WRVkkAei7xBYlCJDJVu4W0HL7tDmtSCDHGwzk+r2sRhij1G4Cy35hTtX0Kik1C3637Kv7So4fVP8/BSqvmy4FTn1cxTuYiKJc2C5+VY3oXFuxfj9gz1F8Tk9xn8ZYtVZHPMhPUyr17uHCVb1Cw097goGhTuAEnehdL+ud6LLLYWI6T1+SYt0/NdSGEXJ3twXyNI+PRjcQz7kKEWC1WUTQ3osgMwl+jp4FteM3YTGX6fhXsGeompopNp5Fm8Ai1PER8aFp1g4maeN0eNHj/GsV4yNUm0j1Z1r8bCspzqO+XDSS2TJeoU6JumzEDLEVInjLs/catbaoGcjQBlIk/xEG/T+zg8sShFCiX8rJ4stgNygcJcc6HEXXpW1iVRFVZdq84EgiwM+vZnrvmzJm4RknIVQZB5Joo75bWiHS/S4OsjSOJjRzPWnWDykM+gzY7TBi304Q9y/0Is8rKSd30k0jt423kIAKHHt0vWINn8IMojQi49Sz28thgyUdOFOiNw8d9pAbniqG6ZkCcSYEL9hIWRILxCJfclp4vrTmHi6pTHiXdDMDesNadQ/Jwp3McEJOub1GP+6NnVBFic8v5Hr3m/JRnqpH8d7eEPcv9DjLiyfUtUWQp4wVaJwB1BG9F3hQgshIliUIrySLty1SefT2mAZ59xV6GPKYRZDvK2xFjKWzN4JTdzwXiaea2ncuJ/polO5ZkKQDjz04EUnJvoTcszP4tq99Bg/x9K4qfLIu8Ktcmv5eiZQBY738Ia4fzEKdyExetzlHZOH8xugjLRTl+sM9GiQQQSwKEUWSnyo7EA1F6vLRoKPsABijFG4Cy1JvY8GTeNpbg6jy3SLc8+KXTehqhaL3c8ZPZBigqki9se8O8YryHPHuBtyGle7ME1otXg9/VSB4z28oe5f66yFDCXxnpY0VSjcAZQVX3yfgrnuIAKCRSmyUvKFOyZG4S4aR9hk2xBvKNyFl7iXnPfT9qfqyfg+S2NLr79fb+Tp+1mKF52YSEKPHD3Gv6Z/0qKtkpwpPca/uuGwcKeSGMd7SPogv9H9S0jWWggZEvIxVDbP0IMcoByJ+zIRUxJFA4tSZKHkC3craNkd2rwWZJCDbWZS3T4WQ0zpwySO9dA4UYW7GVyzlUf8PUvjzvOoYr7F6IEUE3HvkXMaH7+FHuPftzTu3HPU+Rt+sZUmD8d7SPoDHOL+xSjchSTkoXCXd96QQ+QBoHS1SNdKIVloKWQPi1JkqeQLdwtkqZsf5ZYgg1ykSLC6bMz1k7xqIWQuzkPxNjKeqpq12SzIEuHARq79lLabBikUG8f8mJ9A490xvnmQJcIBjTRwjL9JH65wvIckRBvdv/RYReEuJI/kzblFIT/05X2ShQBQVvgiCyBr8kssSpGdki/cOZjnLjIo3MVcitIo3IWXmCEvZ3DtZH1o+IqlieGR911t0AskJnxXG4upWXz81kx0iqUJwt9+a687vNhnZZW1b4XCXUhMHgp3ecdbWAAAZaRVOu7T5vYggyxImgSLUmSpTAp35Ap32kBueGoz1020BGLIpxVDvfjACPTCkJiXnLHknTbQJA7vbQHEgN74Y1usrqDxp2qTxGGm+8ym6W+uvs7EKNyFxEP0uNMr9OsWQIZ89LjLOz1WUbgDKFP63nChhRDere3S9YjFEFJZFO7apPNpbR4IMshBhZB3qMUQQ3NksZvcG6vwhaAP4InocXcyTxujf9ovWwqQi1ge8zP4KNcrM3E9Sgcxed+wUKHHXXjyigVvwastgAzFuTBfQlC4AyhTK2nZNdo8E2QQjmBRihyUReHOwXDZaDCGyybBy9ZCZhLxkrMN7XCsNlsFGUAuOJY9csbTJDdP3NZBlkhHNHHN212AHnfhCfFQ9y4U7kJKUi/y5MJQWYBy5ebPFxSgsvHScup1RU/IUtkU7vQhGoW7aByx4ep5EDeCwl0ISXnJ0T/nSRYC5EhiWawugWNcn6mq61yAOe7C0weLIe5dgsJdaJykxYsSSY/VJH/BAAA58qnXFe6wwEIo8gssSpGbsincraBld2jzWpBBDraZSXX7WAyxNGSvBRiGPoBvYmFszeCarfTP+TFLAXIVu2P+ND5+CyY+xNLE0vP0BIvQOzakNKU3unf5KNyFxigaF8L21gJAGWqX7ueF5DeWwuikl/ovtRiyVDaFO9etVZtbggxykSLBcNl4e95ayMykuPciHUtVH9emIsgAciMxHMY5nsa5Y7wyyBLtPc1ct4teULazHDLElNro3sXkYaX00DCMswBQuAMoe3yRBTAKIfnTOXLFw5ZClsqmcOdgnrvIoHAXa/KcBZCZitOoNta97pjYFTUAIsFEsSvcldYx7rn/FhTuQmLqGepLp5XWQuZQuMujM/m4zbXBPIIAZa5VOu4UonsthRFhTsAolFXhro/Siy2EnPDUZq6baAnEjBCjx11I4ykd26FFrjcgE33UUoCc6YNmrI53O8anWVoK3OrruEeGs6ZVuldZ/CahPhTuwkPhLo+qaSx62wHAAH2eutBCGN5Lb9BKLEoRgbIq3J0ji57S5v4ggxxUCHnuxQRiyX/WAshQmipiW7ibRTW7a4P5siAycetxN4vqdtOmlCZ7P9hayJC+/Az5hZOQj8JdeCjc5RXvYAEAlLk+6rlSm1eCDIai9/dfzpcbeiyFHJRV4c7BcNlo6IsfhsvGljxtAWQoRX58e9xRaqqFAFGJ1Yu93k9K7RhHb7uQ9BhwX6xuZB29jsJdeOObuAYry+YJkzfFQgAoc/Oke62Q/NxS2Jj0Ud8lFkOOyq5wx8Qo3EXjiLhP6F+u+skb8gUIhifkbWNhDPF7LQCIyian8CfHWRwHOMbLngx537Jv6TcaQgsj66cqDOfMG3mHBQAA5BN3WwgbwKIU0Sq7wt0KWnaHNq8FGeRgm5lUt4/FECP30DPPaJMOMsiMxHgied7TAoDIbEabxObFnolwjMOT1g7lJWshQ5VEGM6ZP7taCwCgzzDyIQthI1iUIkplV7hbIEv7tLklyCAXKRIMl42hJbKkXxvMcxcCE8e2d4IQYVgO5EF8itU4xkGPAhTuIuTH+J6WfIwedwDwJo+ozkJYHxaliFjZFe4czHMXGRTuYkseswAyoNeEWPa4q+GaFBO9zVKAyHjkxeLF3mPPzbnwdkuhTPkj3rPkRQsgQ/pwjx53eTCNp1Vos3OQAUC5m8n17yLifS2Ft8CiFNEry8JdH6UXWwg54anNXIdJuGNIiJdbCBmIa4+7nYLVZN2LAkDEOBbF6rPp2C21qQwyKFfeiPcsfsECyJigF2se7EvbuxWwq4IMAMpdBXGthbA+EaJLLYaIlGXh7hxZ5CZBvj/IIAcVQt6hFkOMMAkKd+HsZG2s6PnlihoAeSCxOOaFxuEYh7676NmRhspi6ofQ2BWYIGKVWCwKAIxbpJGJULgb2m1t0vGQxRCRsizcORguGw29YGG4bAzp8Y3CXTjbNPKxm1gcGymq3NRCgEhxTOZpShHhGIcnbG7WIen9DIW78FC4ywM9FveyEADK3GyqPVibHYMMNoBFKfKgbAt3+tKCwl00jnDfOFgMMcEk+JYjHBbaJHYTTutLwlgLAaIWkxd7HONAI96vfKLnLITMbXEW10yyGKKDHncAMICJ6y2E9b28hl652mKIUNkW7lbQsju0eS3IIAfbzKS6fSyGmFhBr7sXIX3fgUylSGJXuPOIMfcX5MvbT+ZpYywuGhzjQCQPWjAMRo+7LFRR9e4WQkT0RX1vCwGgjNnz06eDDNYnWJQiT8q2cLdAlvZpc0uQQS5SJBguGzML5No3tHFzOULG4jcnkE/ptIUAUfMm07ZFn8DeJ8IxXvZ4xMKdXgdHmv8OhofeYRFq5uluXtBtgwwAytnWtP0ntNk8yOAtxCe+xGKIWNkW7hzMcxcZFO7iaZm1kJn3WBsbQtRrIUDkmFJFn69JiHGMl7k0yYj3qrmy8GVt1gQZZIqJ0DssQkKpAy0EgDLnEdVZCOvDohR5VNaFuz5KL7YQcsJTm7luoiUQE0L0gIWQmRgO+U6ttgAgckISgxd7H8d4eROPejO5V6HXXXj7WwsRYOIPWAgAZew0Pn4LvSKg08rQsChFHpV14e4cWeSGEt4fZJCDCiHvUIshJvSl/F8WQmamxG0y7xT5r1oIkA9Ff7HHMV72nmyV7lUWj+QJayFz7zmFPznOYsiREKHHHQDQBBr/WW2qggzeAotS5FlZF+4cDJeNBmO4bOzosY2idDhcRVVTLY6FFbT6eQsBIsfE+9dwTcrSonienscxXtYyu08J0WMWQuYqNqdN0UssAq6HDYYeA4Cj1wIMkx2C3qc7sChFfqFwR4LhstE4wmNPr2UQF+topZs3CPNHhfMha2PBLTKiN8IVlgJEbcIUqn6fxUVxmSxZp42bwwzK033WjohJllsIIehDWazuaUm1CY07RJuyf2cCKHezebpb1AtfiGxM9H0Fw2TzrOxvQq/SQ3/R5rUggxxsM5PqYjhHWPmybz3+HWSQoWnWxsmj1gLkQ9GPeSHBMV6mfJJ7LRyRTz4Kd1lg4sMshNzg5wgA5FGqVht0VNnYn7EoRf6VfeFugSzt0+aWIINcpEgwXDZ+7rEWMqAvOfudwbWTLY0FfTp40EKAfDjK2qLR8w7HeJlKE2d0j/LJ/6+FEM7+M7hmK4shC8FoEhRAAcqdjSzDMNkhCAl62xUAun0rzHMXFT7CAogNQeEuHG8MecdYHAuYqxDy7MBZfPzWFheFYJGocvXyXOnMaNGJdNDjzg8yCCE1lqpOtBiy0EgnflSbHYIMAMrVLKqdysTvsBT+5+U3aMVVFkMeoXCn+iiNee6icUAz1020GGIgTfw3CyFDelNusDAWhGSphQD5kKqgsW7oR9H4lMYxXp4yvj/Nk+61gpVls6IP+p+3ELLifc4CAChjjN52Q8KiFIWDwp06RxY9pQ2+8c9dhZB3qMUQA0vp6X9p80aQQYYOms11MfpGbc3f9S/9QQyQD15RX+zXUL/rGeymrYDycpe1GRIMqc4K793MtZiDOAszuH5T/fkdbykAlKlTeP9KJv6spfA/0k/pSyyGPEPhzmC4bDSYCPPcxcgSWdKvR7cr/EDmOEUcmx4KbXLNam3wO4R8ek8jT9/P4oK7ULpf1wa97sqMT+mQhTt2K6VDVrwvWwAhjCd2PWzGBRkAlKvNaXe3QjfmC93Yn+fKQnypViAo3BkhwXDZaBxhk3dCbPBfLYCM8edm8FHVlsTBTdYC5IVHFV+xsFj+YC2Uh/Ra8u62OCP6YIHCXda4YSbXbmkJZECfZT19NzjdUoBYYmK8yxeA/pw/biG8hV4jsShFAeFkN49R3x3avBZkkINtZlIdhmTESJr8P1sImdt2PE0q6rxfb+VT//UWAuRL3Wyu2cbigksTXWchlAEhum++dIZ65uqnfkxpkr1xlZT6qsWQgVl04jGYiB4SoMpayCMm+oSF8D+vvEDPXG0xFAAKd6Zbunu1uSXIIBcpEgyXjREvKErrezGEw2fGpffoHLrSzQH2aJAB5MWYFFWdanHBzaWufwiRWzkUygCTZPGF0ooH9C9YWTZ7Xz+La8ZaDKPwyDvbQoDY0vtmnEaHlKRZXLuXNrsFGbxFx2WyZJ3FUAAo3L0F5rmLCh9hAcRAq3Svcr0bLIXMvXsm1R5lcVH54ov+DhdZCpAXQvzVU7lmgqUF5Y5xxjFeTkIX7ubI4jX6nIbibvYmV1N10YrzSdLMDfocywdZChBnm1kLeZKi1GcshP+RPkpjmGyBoXD3FnoAYp67aBzQzHUTLYZ4+JO1EIJH/N249Lpj8i/XBr1NIG/0QJ+0CVV/w9KC66ceHOPlwV9Nb2Q7hQO+hMrN7CauwYv+CNw9X4h+ZClA3OF9K4/sHSA2U+fEh9yORSkKD4W7tzhHFj2lDeZQyV2FkHeoxRADetf5o4UQgv7c9ptFtcdbWlQt0uWGyuLLBcgrPebPPo2P38LSgpoj3Y/pw+CNlkKJEqJ7L5CrXrE0JHbTBkD2tmCqmmkxDKGRpn9ar4PvsxQg1vRYnRizxdRKyiya/hH9Ge9sKRgfi1IUBQp3G8HqslHQixzmuYuRfnrxdm16ggzCYOK2+DwU+edZAJAvEzeh8d+xuAhwjJc+udmC0ITSKNzljM9q5oZdLYG3mMVHjNdXo7mWQpHoO4RYCKPj8TRxe4shYh55X7AQ/ueVF+nZqyyGAkLhbgM+5rmLyhFxGWIIb84NdKelEIIexFPG0xazLC2qFulyL7x3BxlA3nytiRvea3FBtcjCJdr8NcigFDH5WfcA76N+V7jDS31uxuh2cRDCW6Vo6+9ps2OQQRFhyoRQZCcLIEJncO1kbTC/3cawKEWRoHC3gceCFThfCzLIwTYzqW4fiyEGmBhF6ew1z+Ta3S0usnSzBQD5UqEvAj+r4ZqU5YWGY7x0rV5O/X+xOLR50r1CsMJ2FA5p4oY6i0G5LyuY6HRLoaik3wLISComz6elZSylTtGmKsjAiE99l1gMBYbC3Qa6pbtXm1uCDHKhBxdWl42RPpIbLITwxlRS6udFLGS8KeiRJNdbCpAXTPz+KVR9tqUF1SIdbjGd3wUZlBIh+qM9Z2WNie6yEHKgP8fzG7l+B0vLmpsOQ38eHRpWBHuguBhTu4Qi77YAIhIMmyeswr0Rub1NrlhmCRQYCndDEAyXjYQ+BGGeuxiZK53/0ZemxyyF8A6cQtXfsrjIZIb+5Y0gBsibHzTy9P0sLqh+6nE9X3CMlxw/58VH9BkNQ6mjMVFfAhZO42llX6waT1vM0WavIIPiE1z7Q+F9LYCIVNCWX9ZmyyCDQUKM3nZFhMLdEPoojQUqonFAM9dhmfJYQU+tHH27kWuLvmJysMKsFHEBASgTVR5VdJ/FNZMsLxi3wqzo+WYplAbfp76ce34z+ZivNTL8oQNo+xZLylITN3xWm9OCDGJijbWQmb2xsmx0bJGaWMxtHSf6TLbiBXr6N5ZCEaBwN4RzZNFT2twfZJCDCiGv6EUO+B8mvtpCyE7Ko9QVs7nuHZYXTRstdKtvuon8AfJplyqqvvIU3r/S8oJpp64f64Mipq4oHXe2S/fzFmftLnrOPZ+tDjLIHc9s5PqTLCkrzVy3LxNdrqE2ECMrrYXMVI+hzQ+wGHKUoq3dqJZtggwGMQkWpSgyFO6GJeh1FwEMl42X5dRzuzYvBRlkaYsUedfP4uO3trwofPF9vXu6ycWfC/YA5Idexw+dSHtcXOiVwt0x7lOPHuPyrO2CBBOiayzMyRJZ4iaudwuJQUQ84kuauaGs5iVu5rpd9L/cjUIYF+yB+GAU7kLyKHWIhZADt5KsPujMthTeoo8Iw2SLDIW7YfiY5y4qRxT6ZQ+G1y3daX15wqTvudutgsYvLsYQwrc6Vzqe6yf/eA3XBnsA8kMv4l9opLp5lhaM66HlE+EYTz5h6o+yx7dbwASi43rUXtXIdR8N0tJ2Nk9/m5B3s4boVRNLPr5gDolJPmEh5GAMpVq12TTI4C1ud3OlWwxFgsLdMB6jPvdt7mtBBjnYZibV7WMxxICQXGEh5Gafaqq6pdg97+ZI11998l3PO9cLBSCfzmji+vM99gr67NAmnXf5lJ6uIY7x5LqrRRY9bnHO+qkfhbvojfPIu76J6w63vCQ18/SdKqniViba2XZB7Hg5D6kvP7z3bJ4+xRLIwmyuP0ivC2U5bcBo9D3jpxZCEaFwN4xu6e7VBnPrREAPsrIafhF3j1Gve+HB8MpI8N4VNP6Os/nE3WxHUbRJl+vJ0qAbChuQV0x8WiPVLjqZp42xXQXRJgt/SySuQN0X7IGEWWRtJP5Oz9+jDb5cjd44Ju93zVz3OctLSjPX7kNU8Rd9OUeBI8b6KY3pEbLgUepECyEkt7hHKlgxFbWRjb28llZiUYoYwME5AsFw2UjoAxLmuYsRN1xWj+5uSyF3u1ZR5V3Fnh+oRTqusCGFWI0N8oxrtqEd/tTI9TvYjoJokU69eMlxGuIYT5b+NdQT6T3H5rnD4jz5UaWvB5c3c/15xViUJl+C1WNTf9Zw+2APxFWK+p+wEELhz2F6ouyMpy2+r80eQQZvJUS/mC839FgKRYTC3Qj6KI0FKqJxQDPXTbQYYsDHcNmoueP7hiauby/mkvxt0vE7/e1+WMPIhqQBDGOqR/yPRm44xvKCaJfO69NEH9IHycdsF8SckPxxvnRHPmeVHgN/sBDygk+fRHvclvThd653cDM3XMBEV2o6IdgLcdYq3au0eTXIIFOuJ+lsqsUop5D02f1D2pwdZLAB36f+BRZDkaFwN4JzZNFT2jwQZJCDCiHvUIshBtqk62/aLAsyiIjHxLPG0xZLG7m+aMvyt0jXPXqffZ++1LqXFIB82lIfIq7Vl+LOQs712C4d9zL5+wpJpMMvIT/0ZfKXFkZKXyZQuMu/D6So4p96T/tGDdekbF9iuHvxNrSDG1Z9qm7oiZQsj1gLIehz6JkWQgZmcM1W+jNbqGHirm8Fcn27LFpuMRQZCnejwnDZKOjTEobLxowQXWYhROs9HvEdTdxwmVu5zvYVVIt0rWyVjhPTJEdr+t9gL0De1FXQ+Af1mD+zUD1Og2O8s1avY24lPRzj8fXSGlrxW4sjZS8TDwUZ5NEEvafNn0LV9zZz3SG2L9Yaefp2zVz/c3cv1vRdwV5ImIethXAOKeaXx0nivowYR9WuaFfQaT+SJT3fAogBFO5G4aNwF5XDMe9CvKRpTYc2mOg9P9zB/vkqqnhYXx4umsU1RVm9zg0rXEHL3EvLl4jkwWAvQF5M1GN+3nja4r+ud86pXFOQIWmt0nEDjvH4EqLOfM6No//86yyE/NtLb21/bOaGW+NawJvNNdu4KSs8qniEiE/WXXjPSSg9t/9jIYTkEf/QQhjBLlQ9R59bMCJsWPLPNrriVksgBlhEL40wrBquqZpC1W5ulk2DPZC99PtaZOE/LIEYaOKGq/Sm5SZ7h/xK63ZdmuTnq+jBmxbI0oIXTF3hvJHqPqxX/M/q7/zjumvH4BOA6OlxtoJJOoT4F63ScZ/tzisc47EjfZR+11xZmLeCqpubiIlvsxQK61/6K75Yt27XA9b2FcUsnj61gipO0fAE3Qq64jWMrp/WTJ4jV71oaUaauO5ot8KxpRCSkH9Mq3Thi41h6L3jS3rv+JmlMASf/Lo26XI9EiEmULjLQDM3XK3NsUEG2dIj7Zv6AtdiKcSArYSKXqUFZAWN3/okN6wlvnm+dL5mH+Wdm4csReOPYKJj9PL/Cf3TFG0hDSgry/S4vypN/df/nZ6/x1YEzbtmPnknoT59+aPD9AF9X/0zbGsfQWHc1iIdH7E4L9xQpylU/byGWwZ7oAhcj8qb9DXvmnXk3XSudDwX7M4fjz2vkabvI8TH6Lldo7veGXwCcZRd4a7m7UzVWF02S3q/W76SVu21QK59w3aBsaKwe7evCPbAEJ5cQct2LUZHAxgeCncZQFU+Mn/Rh/iDLYYYsB4qbpEKPPQWR1ofr+7X9k59AblbqP8/RGsfapNrVgcfZ28G1286jnhPJn9P/U3vq7sO1O3durH7HKBI1uimx7o75tP36Anw4Gp6eHmuD4fuWnYGfWa7aqp6t/6z99Zd++t9+4PabjPwN0ARyHEt0nmNJXnjVgzVxi0+AMXnXircEMc7NLzbp/S/fFqxbI4sdud91s7imknVVL2XT7K33sAO0nPbrZ6+VfApxF02hTtHz+0XtCnYwkcl6Dx978JiFW/RyPUf84hdT8SxwR4Yil5rZ7RJ5/mWQkygcJcBN8F8FVU8aSlkr18vBVsXe0gFrK+J60/Th2BcnOPDXZSf1c2tau0edHWTl3Sn+9a0V9tefejo1Ztqlf7exuhLzBghGauxe7h1m3uZcUME8bALSeGKdo/p9qwe3y/qMe2O+5V6XPfqY8o6zddprB+x6yGqx70bCieb6Y6t7bh3xTk3j+R43SAeHl1OPbt1S7ebJiCv9OV+f23cSukQT3qqvnlPe17T54X4ZW17Nji/9UVa9NzmaibZUtvtdOd2+rlb5GmybpBQ2Rfu6q/T48AtQATZ8fVZ8bA26bzF8rJmUyvcqCGeFUb2Qg/17DxPutdaDjGBwl2G9MHQ9YrZM8ggW3q01bRKx68shRhwPbPGE7sHaszjCAAAOdN7/el6ry/YanT6jPZvbbB6KEAM5dDjbqY2c4IMsvTcOqJ9CzGEPc6auP5IJv6NhuOCPTAcIZndKp0472IIqy1lDKvLRoGJjrQQYsLmWLs8yAAAAHKy6g2Sgt5TBPcwgFL0J2she9uOIbr6ZJ5Wtou2NHFDHRP/VkMU7Ub34mrq/YnFEDMo3GXIR+EuKoe7uYgshpgQ6jlXG0xACgAAORGiCwq56I7TT+lfaLMuyACgFNxFT/9Dm4JeS0rUAdvQDovcYj6WlwX3vtnMDd/Vl84OTauCvTASvX/PvVC6X7cUYgaFuww9Rn13aIObR+62baQT3cThECOt0v2kXq4XWQoAAJCN11+nNT+2uGDmykI3Z9qvLQWAEuBWIBcS9/4FuTt2ClVfVi7FOzcNUCPVuZVjv6cbOoxk5rmVtAq97WIMhbsMdUt3rzaY3DMCQikMl40hn/rbBxoAAICsyMUXyFWvWFJQ/frvthAASoQQLbYQctewC1V1nML7V1pekmZzw/vGEy/V8FPBHsiEnms/XCDXuoXwIKZQuAtBMFw2EpjnLp7a5IpletF2c0AAAACE9cZa8udZXHBzpOuv2twdZABQCjxK/85CiAATT59Ie9zgeqTZrpIxjadVNHN9U4rI3Qt2C/ZChv67kpZdajHEFAp3IfRRGt/6ROOAZq6baDHESJr6vqsNet0BAEBIMv88WfiCJUXhk5xjIQCUgBZZ9Lg29wUZRIGJDh1P/Lcmrn237Uq8WVy71wG0w1/0v65FU8xnF5IQfXOBLMVc5zGHwl0I58iip7R5IMggBxVC3qEWQ4zMkSseEJIrLQUAABiVPvSvWEdr5lhaNI9R7zX6Z1luKQCUBvS6i947mVJ/a+b6UyxPpDP5uM2bueHcCkrdo+nUYC+EI3e0UxfmiE0AFO5Cw3DZKGC4bHwxset1h29dAAAgU63nytWvWlw03dKd1qZow3UBIHpCdJWFEK1x+tR/cTM33DSLa3a2fYlQwzVV+uc+dQxNeETTM3SrGPgAwpJ+Sp/li6+nGcQdCnch+SjcReVwt0y3xRAjLdLxX20uDzIAAIARPfkCPX2hxUX3Br1ymTZuhAQAlIBW6XBDZf8VZJAHh1VQ9QNN3PDDU7lmgu2LpZN52hjXS3AKVbuC3QW6bTnwAWSrc44swtywCYHCXUiPUZ9blnx1kEEOtm2kE/e2GGImTT2u1x2OcwAAGJEQzbxMlqyztOjmyw09+mdqtRQASoCe050WQn6MY6JvbUrVy5u5YWbcFq84i2u21z/X97ahHZ5wvQR119uDTyAHr+n73myLIQFQuAupW7p7tbk5yCAXQikMl42pdul+Xh+S3ASvAAAAw7mtVTp+ZXFsoNcdQGnpIVqojRsKD/m1tW5zxhM/1cwN84u5gMVZXDO2iRs+q3+Oa6up+jHd5ToVuD8fREDf877v3vcshQRA4S4LguGykWCiwyyEGHqBnv6xXtTdjRIAAGBD/f2U/obFseJ63fnBSx4AlIBzpeM5bW4KMigA1+PuG0wpN4R2aRPXz2rmhl2Dj/LnDK6d3Mh1tfrv7K6m6hf1XbFbdx+jW+XA3wARkX/eTU+fbwkkBIvoqzmEcjZPf1sVVTxpKWSvt59enDRHFq+xHGJGb57HeeRhUmAAAFiPkFzQKp2xLNw5NVyTmkLV92q4V7AHAIqhn9ZMniNXvWhp1pq4/kgmvtFSKI5H9er/J73+3+kT3fM49f3HRqOF5haY2JEqdq8gbz8idivCHqTbu3TDHOj55fskB7VJ512WQ0KgcJelZm64X5s9gwyy5VP6sDZZ+EdLIYaauf46vVR8wlIAAIAnfVq9Z5tcE+u5UPVZ7QhtMEoCoIiiKty5Re0aqW6Zhu8M9kAM9On2mBuhwyTPaKu/Z15FJKs17xP9rQnJWCYep3/fRA6Gum6n2066uZVsU7pBYV3YIh2nWQwJgqGyWcNw2SgweR+wEGJK78inaoNekQAAMCBN/lfjXrRz9OVksTZuA4CE88V3vU1is4I1DHBDWHdjosP1re5kJm7UuFVb/T15P9V4gUd8nrY/0u1s/XsbdDtENzfsFkW7wnvCp9XNFkPCoHCXJR+Fu6gcYC3E1FzpfEKflL5jKQAAlDEhWdQuXYkZrtZLfTO06QkyAEgyn1b/UpuVQQYAIYiQ/5UkfOkGQ0PhLkuPUd8d2uDAzxETvddCiDGbwBRzIQAAlLfn+sl3hbDEOEeueFiI5lkKAAlmRYf5QQYAIVzSKl1Y4CXBULjLkk3EeXOQQfZ4u5lcu6UlEFNLZEl/L/WdpOEbwR4AACgzIiRfmCsLX7Y8MdL0Yos2jwcZACTZOnrdFe5eDTIAyMDjPq12Q5UhwVC4y4mPeVMiUEGp3SyEGAt6LcgsSwEAoLxc1CqdiZwmxK1e71P6yxq6ObIAIMHOlatf1edRNxIEAEaXFkrXY4hs8qFwl4Ne8jHPXTR2sRZirp0W/kSbPwQZAACUif/0UE+iv7hxK9gL0S8sBYAEY5Ifa4O57gBGofe91lZZ+BdLIcFQuMvBObLoKW0eCDLIlt5832YhxJxb0Wstpd2KUM8FewAAoMSt6SP5zDzpXmt5YjH5Z+lrzLOWAkAB6IUjbWFkWqRrpZ7LP7IUAIYkd6ykZT+wBBIOhbucYXXZ3PFkCyABzpOFL2gzXbfIH8QAACBehOiUudL5H0sTzb3s++R/TkMMmQUokAlU0W9hpJZT7wV6Ii+3FADW95JPdMICWdpnOSQcCnc58lG4i8IW1kJCtEjHn4Tke5YClAnusQCgTMiCVunosqQkuCGz+t+FVSkBCuQNen2dhZFyCwUy0WxLAeB/fCG/vk06n7YcSgAKdzl6jPru0AaTPeZmgrWQIO200K3Sd12QAZS81T7R0dq6HqcA5eCva2jF6RaXlOfpmSZt/hVkAJBHffPlhrx96dUiHVcJya2WAoDSc+L/WqXrJkuhRKBwlyP3bY82NwcZZGmMtZAgvvi+T6trNcQ8j1Dq0mmS6W3yyz9qe7zm6HkHpe7JtZQ+Np8v3MV0mSxZ10t9n9HwtWAPAORJ3s+xPuo/RZu89OoDSKCbH6VezGtXglC4i4S/2AKAsuKWFu+nnmM0fDnYA1B6hKixXTqvd7G2d+g1370kAJQqva6nj7b5TEvWOXLFw3ouf9FSAMiPvD8funNZ79M/tBSgnP13Na05oVu6MQ95CULhLgK95GOeu9z41kICzZHuxwS9kKB0XdoqHedYPKBFun6hTXuQAZSUtJBfO0cWlsUwUj2Xf00kP7YUAKL3orV5tZKWzdXm/iADKEurfOo75gK56hXLocSgcBeBc2TRU9pguGCWhOh1CyGhWqXzz9q4YbP4hgdKiFx7Fz39VUvW00ZdTfr5Ly0FKAUi5H+lVbrKau7Su+iZmfoc8kdLASBaT1qbV8HKmf7nNXRTGAGUG/f+dUKbXLEsSKEUoXAXGawumy3GHDMlwU0QrOfBqZYCJN1feqj3xCWypN/y9fjiywp68Esa3hjsAUg2IfpWq3T93NKy4c5xJr9GSB6xXQAQEb2uPGFh3rVI1z3afCfIAMqHT3K2vodh6q4Sh8JdRPSEQeEua4JVGktEi3Qu0Jef71oKkFT/0qv6MfOke63lQ3Lf8K+gVW6C+zuDPQCJdX6rdLiVwsuSvvCvFOKjhWiF7QKAaDxkbUG0UZcbMvunIAMoCxe2SSemfCgDKNxF5DHqu0Ob1UEGYejD8jMWQglolc4f6G/1R5YCJM1/+mnNoe5F3vIRLZBr3xDq+biGdwd7AJJGFujL7umWlK026XjIJ3GLLY1YsAeAzAn1/8fCgvDF93upv0FDzPMFJU+IfqX37xmWQolD4S4i3dLt5lS4OcggDCZZbiGUiBbp/JaQtFkKkBDyYJp6PjZHrgo1mXardK8S6jlcj/m/2S6ApLi0jRZ+zQ39trysBatGC+ZrBYhG71paVfAFI9zc426RHQ1xHkPJ0pv2LY9ST70rVtsuKHEo3EVIX9owXDYLfQXuRg+F0SqdTSjeQXK4ol3vR9ul+3nbEYor3vXQmsM1XBrsAYg7uayNur6Cot36WqTzGr13uUVp8HOBkbiemZijeQR6Av1rvtzQY2lBtUrXTfrvx3x3UJL02L73DZLjrOMQlAkU7iIklL5hoIGM6Q9rxTxaWJAVp6DwguIdNWmI8wLi7B/99MaHsy3aDTpXrn7Vp9Uf0xC9ryHm5MdttPCL+KZ+aHrvukRvWmdYCrARIf80bX4bZDAUJrnNwqJop65WbfA7glLznzStOXK+dOKLgzKDwl2E2mTRs0KC3hbh3INv+0tbq3S06QOuW30TQxYghuTPQj0fDTs8djhtcs3qNfTKJzT8dbAHIF70OeW7LdJ5Bu69I9N713z9aTVbCvAmPYcuCVZgFhSFRsRF/RLLXeN8Wt2gv6d/2i6AhMtuShcoDSjcRY7xshYCE91uIZQw94CrD7rHa/hGsAcgFq7rod4j3DBXyyPhhgYtp54T9QHrJ7YLIA5c77rTggWEIBMt0tlqvcYBjNzxKPWe6qJ+eukP2mAxk6G5L7Futbho3JdpPqWP0vCpYA9AUuU2pQskHwp3Eeuj/m5tMPQkQ2ks2V429GXxWj01PqQhVhGGODh/OfUcO0+68/LS1S3daX3p/7pP4lb76g/2AhTN6/pgcmyLdFxoOWTI9RrX89gNm0UPxTKnB8Bja8k/fnBeqTmyeI2QXDPwIWzo+mLNb7chGxHlincYWghJ9bBP6Y+haFfeULiLWLCSERX9G6aEWLmUnv6rxVAGWqTrnnVE++sDFFbfhGLp1+Pv1BbpmOGKa7Yvb9qk83x92Pq4hq8GewAK7hk90D/cJh2/sxxC0vP4x/ps5xaswJQP5esVPQaOPE8WvmD5ACb/5xbC+jqsjYVW6bzfJzlOQ30MBUiUB3zq/6grQFsOZQqFuzxgkksshJHdsESWoCdKmTlXOp7rpd6PaBirhzooCyt1O1of4C8K0sJok4V/9IkO0PA/wR6AwnBfkvRQz9R26bjXdkGWWqXjpz6lP60hhkaWn9d9kk+0ScdDlr+pja5wX9Y/GmTguJ6Jy6nnj5bGRpt03iLkf1bDvmAPQOz9Ve/hH0bRDhwU7vJgOfW6bvPPBRkMJ03ihhVDGXLDE1uk4yQN3aIVeAmCQvhXmvr31+NuseUF5V74+unF92uIgjUUys/eoBUf0ustpieISJss/G2a6HAN3ZcAUB7W+ZQ+rk0677J8PW4BBCE631JQTP4FhejRno1W6bpOf191GqL3LMSaHqc36XPjoXoPX2G7oMyhcJcHbu4LPdkwj8zIXnycet2kvlDGWqTjUj1XPiAkj9gugHzoWkGrPtAui5ZbXhRuPiQUrKEA1gn5X9Rj7StxmWOqlLRLx+19lD5Qw/8Ge6CE9aTJP971mrZ8SGl68VJtXg6ysvdiP738M4tjqVU6fuWTfEFDFO8glvTd6MpHqecY99xouwBQuMuXXupZoA0mQR2W/HJwcl8ob/oAdZ/Q6/tq6B58AaLkHni+1CId9Qvk2tisaOwK1v3U9359MMPwRYjasjT5H3AreVsOeTBXFj7ohiALCeY0Ll3r9Fw6rl26brR8WLZIxXxLy5pP0pqEYkObdP5S78HTNcSwWYgVvZa0tVNXLd6TYUMo3OVJ0K1VLrAU1pfup96LLQbQB6hrVrdIx5f0ZvVxPW8wjwNEQO7xifZ1RTLbEStz5IoHVtKyA/SY/4GmmOsTIiALVtCq/dql65+2A/LIPeetpAcP13O4oHNmQkG8ro+qR2VStBuUppfO06bch6Uve5UeTMz54HreCdGxGqIHPMRBn97Hv9AqnU2++PoIC7A+FjczA+TFWVwzqYqqH2GiSbYLlD7k/kYvSp+xFGA97ryppmr3zXWtbnr6AITipio4ZyUt+94CWZqIb9KbuWF/bVyBca+BHQDhPKNP+F/DqrHF08QNdXqz+qmG44I9kGDPE/mfcKvgW54xPQ4a9Dj4paXlxhdKf7hVFv7F8sRo5LqPeuS5+ck3C/YAFJY+t64Q8j/dJl3oxQ3DQuEuzxq5/nSP2H0LB4HeXup7zzlyxcOWAwxpNtd+OEUp983tu4M9AKP6XZr8s9ulK3FzJk7jaRVTaYdv6EvfdzXdNNgLMKK1QjI3TS/NwTw4xTeLa/eqoNSvNHxnsAcS6AGi/qNbZNHjlofisceNVOcKV24OxLKib5PntkrHWZYmziw+cc8KqrxBw7cHewAK5gF9Nz4e78YwGhTu8qyGa6qmULWbxwjFB6VHW4ve2L9pKcCITuH9KyfS7mcw8bc03STYC7CRf+vV5cwW6Uz8gjdncsO21STn6DF/oqbocQpDcU9uv+4nmTVXOp+wfRADs/iI8RW09Y81/GKwBxLkOp9W17qpOyzPykyu3b2SUu65f2ywp/QJyd8epd6Dkz4nV3D/pd/pjXc/2wWQb1f004tfwpdvkAkU7gpgNtcflCL+s4blPqfgf9bQK+/DKncQ1hlcO3ksed/TS5Z7GaoI9gLQk0T+d5dTX6e+MJTU6nCzuO4DFeSdo2HZ9dyA4ekT2y36UtnUIh1LbRfEUCPXf5qJf6q/K0yVEn++kHy/nRb+X1TzSjVxw1f1d/8TS0vdM26hlnnSXRLz+1nx3Q13Pj7YA5AXrsh9lt7LLwxSgNGhcFcgzdxwrjZnBFlZWqdH2gFuBVHLAUJr5BP38Khijl66PmG7oDy9rNeT9hfo6QsvkyXrbF/JccOuZlHt8R5xq6a7BnuhHOnxfi8TfVMf8hfbLog513tnTFC8+VSwB2LIzWdX3yJdN1seGX3u79LGzdVbyl5Nk//RUlsQx917Z1Ndk15z3eJRqWAvQGSe6Cf/xDnS9VfLATKCwl2BnMU1Y6up2n1DXq5DZr8U19UdIXkauf4Aj/j7Gh4W7IEy8YKQnLuaen9yoXS/bvtKnhsyPon2OEnv1s36IrGz7YYy4IagCfGP5lDXdb74eGBLoCauO4HJcwsubR3sgZi4rp/WfHGOXPWi5ZGy5/5bNPxAsKfkvN5P/mGlXHxo5np9xuRFGm4R7AHI2RXr6PWvnStXv2o5QMZQuCsgm/fibxqW21xd57dIxwyLASLjhqF7xN9lokNtF5Smp3ySc/qo95J50r3W9pWdwQKehk267TKwE0qUuOk1flQK8zaCKwDUTSTyXO+dr+qGHjxFpG89K7Q5o1U6OoI9+XMaH7/FJjTerRL5nmBPyeixlXcj76kYN808fSeiCle8K9UCLBTGa3rtOa0Q1x0oXSjcFVgj1x3nkfdrDctlvrurllNPTanNPwXxMpsb3qcn1Ewm+oymeCkqEXp3ulf/Om8lPfjrBbK0z3aXvRquSe1ClXqse+6Yf5/thuTr12P+aiF/Xpt0uS/5oMQ0c+0+et5eoI/fB9kuKCj3MNp7ert0P2878i6Yozd1k4bvDfYk3ht6jTquVbrcf1NZsFXf3ZfE7kszPGNCWLcT+Z9rka5HLQfICgp3RdDEDW64048sLWWL19Arn8JiFFAos7hm5xRVuVVoXa+kTYO9kDD9ul2v2/wW6fjTwB4YVjPXHSLEZ+oxf7im5b4AUlKt1Cexy/tJzscqseWhkWs/5VGqRcM9gj2QZw8QpWe0yMIllhfUmXzc5mNowlUaTgv2JNaLeq06tlU67rS8rDRx/Yf0Xtup4duDPQAjclO6NLVR10+iWvgGyhsKd0XSzA0/1qaUh49et4Ze+QyKdlAMjXzsJh5NqNVL3Cmalsq33KXuad1+7pNc2iadLoYQmrluFyH+ir5UnKzplsFeiLm7iPyf9lBfdzkPAS9XrhfPAbTD5zT8lm47DuyEqD2n59j37qJnL1siS9yXQkVjUx24hepODfYki74t3svUf3yLLHrcdpWlGVy/6Xiidn2+/IqmHOwF2MhioZ6vtEr3k5YD5AyFuyJxKxY1Ut0CDb8c7CkpP7uLnv56sR+SABw3D16K2L0cfVY39MKLlx69A92g2y//Rk/fiGtG7k7maWO2pu2O98hzx7zr3YFeePHyor4CL+on//I5svBftg/KGOauzIuX9L5y7mrquTBuCxlZb8ufapiUxUrSes06dzn1fqtbunttX9lr5LqPMnmXMNEU2wXgvKDXnlmYyw7yAYW7IrLi3fkaJvLbtyH0+yQz26TT9SYEiJVT+JPjJtJmx2nYoA9arqCBeUqKw9107tKtq4d6rpwn3W6icMiDRq7fgYnr9Hhv0BRD8opnrR701/rkdy6lZ/+AAjUMJZhHa7tPM3luNMYBwV4I6Ul9Dj3Pp5cumSOL19i+2HGLVkyg8e16bf68pnH+cmUpkf/VFum6x3J4i+C5ctNv6332TE2rgr1Qpvr0Pn8BUc8PWqV7le0DiBQKdzHQzPXf1F/FDzVMcpfrJ9Ikte3SeYflALE1i4/fuoLGHaennFvM4sO6oYiXX+5G81f9y1X9JFdhHq/Cm8W1e6XIO15vMp/V43532w35s0aP9xu0vWo19dwYt14/EG+zePrUCqo4TcPjdRszsBNGcqeQf8FKeuiqJC1k5BbW0ocP9/x/pG5xegd4SLfvt1HXlb74eFEcxUyu3b2SUhdoeEiwB8rMzX0kM/TZ9j+WA+QFCncx0cQNn9U79mUajg/2JMov1tHrZ5wrV79qOUBizOCarcZR5TFE3sf1HDxUd20SfAI5eoNIlugdZrFu12LeuviwIt4xTOxeFqfqhsJ1NJ7TY/73PskNr9LqxQvkWj0HALLXzHUTfeJ6L5i7EvO1voXeV1boPburn9I/T/qw89lct7dek11PSzelx7iBnYXnJs+/2af0xXPoit9hMv3wGrn+03quztVwp2APlLj70yTN7dLpFlQDyDsU7mKkievfow8hv0pQb4iHhPwZ5bQkPJS2YK6h3Q4WSrmCxkf0fNxHWxQ1MuNuJv/W7RbdFvdQz22YcD/+zuKaSVVUdYQe64fpvecjuguT5GdunW536aH/B314//1cWnQfeqdAvsziE/dMUWWNHm81TPwO211uXtPtBp/oyseoZ3GpzbnmFtYimnCcR/RpvR5/THeNDT7Jm7RuS4XkGqb0r8p94YkozOCjqsfRFl/Xe2qzplsEe6HEPKE3+u+0U1cXCtxQSCjcxcypXDNhU6qep+GXdNPrfiy55eBbHqWeizFRLZSyM/m4zStp/Ac94g/ryeiG1O6tW+XAh+Ae+B/Q7Xaf5La11HvbfOl+aeATSKxmnr4TUcrNAfkRvQV9QFs38XZc70WF9rq+4C5l4j9r/Kfn6em7LpMlrngHUFDui149LY/WE/MoTd18eKW8CI3rrX2jkH/9C/TsH8vlnAsKQJvvr7/aj+g15/266926uZ5cWf+u9dl9BZM8IMR/15/nHWto7W0XyFWv2McQoSau2Yyoepaeo//f3r29WFXFcQD//tY5c1EnUxsv5SVNs4tmUalESSQl+ZDSg4k3CHsJosQUBf8AMYVKerGHIryQU3QB6yFIpagcRZFGSctBB3W835oZx7GZs1ff3zkDFYmg6MzZZ74f+Ln25TBnxrPW3mv/zl5r+52UaRxNJf8TT7DtrG7F+XVr47dXOzeKdBkl7orUClvgdz94Am98YUtRaGRteb8ZV9dpvh7piZbY7F7lyD4BZCax88uOtHE5/xTAUn9yp58ojrHYy05LLTuitU24ulvHgdLnQ8krUT45wHxI7WR+9p68HpjfWdp8niyf52k36/3OHGJtA9r31cQaT1iLFA2fszWDXlMN5l8uecI97XNYnmbsSBC3s7F9r3mj/uFf7vdB2ZgMwhAgYYTBPDlXcVclj82VXM6w5LEr+hPbW1gnLvD/8RT3H0/Qenh1/OJM/gdJlylMx1L+Nj+LN7iqqVjSyedlXn0Kxz/Wl3XSnZS4K2LBQliOua8YwjKu+pC97uAV5IeI5MPDaP9Sd9iJ/Ncye7FPwMBHAuKECBvPztkD3DyG4UMO0zbMlu09nmRZz4XfGfsDrI4XCL+ujBsvFl4iPd1ymz0kg3Kv7xMMcTy7Ej5sz+v8oPwL0sUTdEcY9az7B/g31SVI6hrQ/pvOd5JG3j4NFZMMmMjwu/G8/1isQ/b8bq/9PNfsYfvbw/PnrpVxPduiSGnpnJZiEev4W1ztV9gqxS0e5D9rLuDghjQ99EZKlxJ3KRAs2HLMm8IO2EJ+ZC9zU9/CntvGx+vvYnzdjrhZT4AUuXGzbXb5cISRZSi7n233Xh5ph7Icxl3DIuJwdt4Gc9m/feXmLuO39p/j+zfybY8b4tEIO8Z1Lw8bmg+til81F14qcmMW2YK+lbAxGSSjI8JwbhrKju8IliNY3+9m6cmDrp54vYlt7ywb2TEus56D9R6NOSQNOeTqW1B/RB1yKXWFZHv2YbbLcWyLY9gu7+M5wO8WH8W4nfOo+R2qZ73d8T0b+J5Hed45xG7mH23IHHg3rvcvikR6jM4pkV7log+h9S+8pLh4YsTnbl+7Chu/07y1UkyUuEuZhTa1chCGTQuI0/nx+WPHb8X8Q56oO8hjVS1rw9Y2JFvfi5t8qIKI3Eae3BsJDEhQPiALVEdYP17UVHnwAquKbZJhFSy527Js6Cxjlq8zLvtwGPYojO03dvg6l1sjYguPD03c2BRgLQnipQCcuww7tzZu8Im9RbrN6zazd39UVieoqM4gYd1HX2NdZ/1lnff67nMBWb6eX6vO8xzV4fWd+zpLXDbWc273BB3rd9LMOn+ebeDcFfx5XvPQiFyfz+UaUDGoDGGQITOY7erOQrvMf0mcb4/XaId+NyrDzz3WwTbXzDZ3yc83bM8XcuhgJBf34uzpbXGbt1MR+RcfVbUMc2YEZN7k6nMMNi3pRs08nm1ix/oDDc+XYqXEXcp1zp3wJD/KcTzi+3Alv6PH72zoz+jNT9c7XJ6Y8zH5lxk+LOEkt3cODcK+VsT9uqAXERERERHpOkttztgyZF8zmN+Jl8YpJ9LsFyB+1IS/PtO8zVLslLgTERERERER6SY+CmMUymcE2DyuTmdU5HfIreYPW9vcDnyiu+skTZS4ExERERERESkCK2y+j5yaBYS5LKcwgm+Xm+ZTQH0ekat5B5/+rLnrJI2UuBMREREREREpMott3uBeyLwExJm8dPf5zSsLe+R6Yv5BOLYlIvnmCNp/rIk1/rAckdRS4k5ERERERESkiBWeSlv+Ahen8TKeAX86tBS0Mn5ifN+O3JY1cdPB/FaREqHEnYiIiIiIiEiKrLD5nrh7PsKeNdgzXB6R39EzXAXi7ghs5d++/TLO79CT5KWUKXEnIiIiIiIikmJLbe7wMoSnDeEprj7OeJRxh+9LOc9YNLDcGRF3sqy9ggt7laiTnkSJOxEREREREZESEiyEJZgzNgt7zGATeOn/EBAfZDmau8sKryo6Z/g7HmK5j7/nvohcXStC3dq4oamwW6RnUuJOREREREREpAeYalOzE3HPqAzCaCAZEWFDDebDbD2GMKoZdzEyjFvpCsOf8HoiIp7ge3rZCFhDAtS3IdYrQSdybUrciYiIiIiIiEie3623GLP6GUJ1BmVVAbHKYL0TJL25uxe3ZwwxC1gAEkZIItAWERloy7BMYC05JJcCOi61oeWihraK3CzgbzBihrZKNoo4AAAAAElFTkSuQmCC;" parent="1" vertex="1">
          <mxGeometry x="100" y="-750" width="322.99" height="106.48" as="geometry" />
        </mxCell>
        <mxCell id="zu_qVnv33TRWZN3CnCPS-33" value="&lt;font style=&quot;font-size: 24px;&quot;&gt;Esquema de Objetos de la APP&lt;/font&gt;" style="text;html=1;align=center;verticalAlign=middle;resizable=0;points=[];autosize=1;strokeColor=none;fillColor=none;" parent="1" vertex="1">
          <mxGeometry x="680" y="-716.76" width="360" height="40" as="geometry" />
        </mxCell>
        <mxCell id="Zr1NcxNAAN9QZW57y6Ao-2" style="edgeStyle=elbowEdgeStyle;html=1;labelBackgroundColor=none;startFill=0;startSize=8;endArrow=diamondThin;endFill=0;endSize=16;fontFamily=Verdana;fontSize=12;elbow=vertical;" edge="1" parent="1">
          <mxGeometry relative="1" as="geometry">
            <mxPoint x="260" y="-27" as="sourcePoint" />
            <mxPoint x="340" y="-27" as="targetPoint" />
            <Array as="points">
              <mxPoint x="300" y="-27" />
            </Array>
          </mxGeometry>
        </mxCell>
      </root>
    </mxGraphModel>
  </diagram>
</mxfile>
